<?xml version="1.0" encoding="UTF-8" standalone="no"?>
<!DOCTYPE svg PUBLIC "-//W3C//DTD SVG 1.1//EN"
 "http://www.w3.org/Graphics/SVG/1.1/DTD/svg11.dtd">
<!-- Generated by graphviz version 2.43.0 (0)
 -->
<!-- Title: AST.cpp Pages: 1 -->
<svg width="988pt" height="247pt"
 viewBox="0.00 0.00 988.00 247.00" xmlns="http://www.w3.org/2000/svg" xmlns:xlink="http://www.w3.org/1999/xlink">
<g id="graph0" class="graph" transform="scale(1 1) rotate(0) translate(4 243)">
<title>AST.cpp</title>
<!-- Node1 -->
<g id="Node000001" class="node">
<title>Node1</title>
<g id="a_Node000001"><a xlink:title="Implementation for AST node type&#45;checking and log dumps.">
<polygon fill="#999999" stroke="#666666" points="730,-239 677,-239 677,-220 730,-220 730,-239"/>
<text text-anchor="middle" x="703.5" y="-227" font-family="Helvetica,sans-Serif" font-size="10.00">AST.cpp</text>
</a>
</g>
</g>
<!-- Node2 -->
<g id="Node000002" class="node">
<title>Node2</title>
<g id="a_Node000002"><a xlink:href="AST_8h.html" target="_top" xlink:title="Defines the Abstract Syntax Tree classes for the Rivet compiler.">
<polygon fill="white" stroke="#666666" points="707,-184 638,-184 638,-165 707,-165 707,-184"/>
<text text-anchor="middle" x="672.5" y="-172" font-family="Helvetica,sans-Serif" font-size="10.00">Rivet/AST.h</text>
</a>
</g>
</g>
<!-- Node1&#45;&gt;Node2 -->
<g id="edge1_Node000001_Node000002" class="edge">
<title>Node1&#45;&gt;Node2</title>
<g id="a_edge1_Node000001_Node000002"><a xlink:title=" ">
<path fill="none" stroke="#63b8ff" d="M698.38,-219.75C694.14,-212.49 687.97,-201.95 682.72,-192.98"/>
<polygon fill="#63b8ff" stroke="#63b8ff" points="685.59,-190.95 677.52,-184.09 679.55,-194.49 685.59,-190.95"/>
</a>
</g>
</g>
<!-- Node4 -->
<g id="Node000004" class="node">
<title>Node4</title>
<g id="a_Node000004"><a xlink:title=" ">
<polygon fill="#e0e0e0" stroke="#999999" points="484.5,-74 440.5,-74 440.5,-55 484.5,-55 484.5,-74"/>
<text text-anchor="middle" x="462.5" y="-62" font-family="Helvetica,sans-Serif" font-size="10.00">vector</text>
</a>
</g>
</g>
<!-- Node1&#45;&gt;Node4 -->
<g id="edge23_Node000001_Node000004" class="edge">
<title>Node1&#45;&gt;Node4</title>
<g id="a_edge23_Node000001_Node000004"><a xlink:title=" ">
<path fill="none" stroke="#63b8ff" d="M676.82,-227.48C622.32,-223.78 498.87,-206.79 445.5,-129 436.04,-115.22 442.97,-96.42 450.63,-82.86"/>
<polygon fill="#63b8ff" stroke="#63b8ff" points="453.8,-84.4 456.11,-74.06 447.86,-80.69 453.8,-84.4"/>
</a>
</g>
</g>
<!-- Node6 -->
<g id="Node000006" class="node">
<title>Node6</title>
<g id="a_Node000006"><a xlink:title=" ">
<polygon fill="#e0e0e0" stroke="#999999" points="792.5,-129 738.5,-129 738.5,-110 792.5,-110 792.5,-129"/>
<text text-anchor="middle" x="765.5" y="-117" font-family="Helvetica,sans-Serif" font-size="10.00">iostream</text>
</a>
</g>
</g>
<!-- Node1&#45;&gt;Node6 -->
<g id="edge22_Node000001_Node000006" class="edge">
<title>Node1&#45;&gt;Node6</title>
<g id="a_edge22_Node000001_Node000006"><a xlink:title=" ">
<path fill="none" stroke="#63b8ff" d="M708.57,-219.66C718.8,-201.85 742.04,-161.37 755.45,-138.01"/>
<polygon fill="#63b8ff" stroke="#63b8ff" points="758.59,-139.57 760.53,-129.16 752.52,-136.09 758.59,-139.57"/>
</a>
</g>
</g>
<!-- Node10 -->
<g id="Node000010" class="node">
<title>Node10</title>
<g id="a_Node000010"><a xlink:href="Lexer_8h.html" target="_top" xlink:title="Defines the Lexer and Token types for the Rivet compiler.">
<polygon fill="white" stroke="#666666" points="862.5,-184 788.5,-184 788.5,-165 862.5,-165 862.5,-184"/>
<text text-anchor="middle" x="825.5" y="-172" font-family="Helvetica,sans-Serif" font-size="10.00">Rivet/Lexer.h</text>
</a>
</g>
</g>
<!-- Node1&#45;&gt;Node10 -->
<g id="edge13_Node000001_Node000010" class="edge">
<title>Node1&#45;&gt;Node10</title>
<g id="a_edge13_Node000001_Node000010"><a xlink:title=" ">
<path fill="none" stroke="#63b8ff" d="M723.1,-219.98C742.82,-211.42 773.45,-198.11 796.08,-188.28"/>
<polygon fill="#63b8ff" stroke="#63b8ff" points="797.76,-191.37 805.54,-184.17 794.98,-184.94 797.76,-191.37"/>
</a>
</g>
</g>
<!-- Node12 -->
<g id="Node000012" class="node">
<title>Node12</title>
<g id="a_Node000012"><a xlink:href="CodeGen_8h.html" target="_top" xlink:title="Defines the globals and context structures required for LLVM IR code generation.">
<polygon fill="white" stroke="#666666" points="331.5,-184 239.5,-184 239.5,-165 331.5,-165 331.5,-184"/>
<text text-anchor="middle" x="285.5" y="-172" font-family="Helvetica,sans-Serif" font-size="10.00">Rivet/CodeGen.h</text>
</a>
</g>
</g>
<!-- Node1&#45;&gt;Node12 -->
<g id="edge16_Node000001_Node000012" class="edge">
<title>Node1&#45;&gt;Node12</title>
<g id="a_edge16_Node000001_Node000012"><a xlink:title=" ">
<path fill="none" stroke="#63b8ff" d="M676.72,-225.1C609.57,-216.59 432.93,-194.19 341.75,-182.63"/>
<polygon fill="#63b8ff" stroke="#63b8ff" points="341.96,-179.13 331.6,-181.35 341.08,-186.08 341.96,-179.13"/>
</a>
</g>
</g>
<!-- Node17 -->
<g id="Node000017" class="node">
<title>Node17</title>
<g id="a_Node000017"><a xlink:title=" ">
<polygon fill="#e0e0e0" stroke="#999999" points="980,-184 881,-184 881,-165 980,-165 980,-184"/>
<text text-anchor="middle" x="930.5" y="-172" font-family="Helvetica,sans-Serif" font-size="10.00">llvm/IR/Constant.h</text>
</a>
</g>
</g>
<!-- Node1&#45;&gt;Node17 -->
<g id="edge24_Node000001_Node000017" class="edge">
<title>Node1&#45;&gt;Node17</title>
<g id="a_edge24_Node000001_Node000017"><a xlink:title=" ">
<path fill="none" stroke="#63b8ff" d="M730.43,-222.21C768.29,-213.37 837.78,-197.15 884.07,-186.34"/>
<polygon fill="#63b8ff" stroke="#63b8ff" points="884.92,-189.74 893.86,-184.05 883.33,-182.92 884.92,-189.74"/>
</a>
</g>
</g>
<!-- Node3 -->
<g id="Node000003" class="node">
<title>Node3</title>
<g id="a_Node000003"><a xlink:title=" ">
<polygon fill="#e0e0e0" stroke="#999999" points="506.5,-129 454.5,-129 454.5,-110 506.5,-110 506.5,-129"/>
<text text-anchor="middle" x="480.5" y="-117" font-family="Helvetica,sans-Serif" font-size="10.00">memory</text>
</a>
</g>
</g>
<!-- Node2&#45;&gt;Node3 -->
<g id="edge2_Node000002_Node000003" class="edge">
<title>Node2&#45;&gt;Node3</title>
<g id="a_edge2_Node000002_Node000003"><a xlink:title=" ">
<path fill="none" stroke="#63b8ff" d="M641.65,-164.98C607.59,-155.58 552.82,-140.46 516.75,-130.51"/>
<polygon fill="#63b8ff" stroke="#63b8ff" points="517.22,-127 506.65,-127.72 515.35,-133.75 517.22,-127"/>
</a>
</g>
</g>
<!-- Node2&#45;&gt;Node4 -->
<g id="edge3_Node000002_Node000004" class="edge">
<title>Node2&#45;&gt;Node4</title>
<g id="a_edge3_Node000002_Node000004"><a xlink:title=" ">
<path fill="none" stroke="#63b8ff" d="M643.75,-165C619.09,-157.18 582.99,-144.48 553.5,-129 526.68,-114.91 498.47,-94.17 480.7,-80.27"/>
<polygon fill="#63b8ff" stroke="#63b8ff" points="482.87,-77.52 472.86,-74.05 478.52,-83.01 482.87,-77.52"/>
</a>
</g>
</g>
<!-- Node5 -->
<g id="Node000005" class="node">
<title>Node5</title>
<g id="a_Node000005"><a xlink:title=" ">
<polygon fill="#e0e0e0" stroke="#999999" points="711,-19 670,-19 670,0 711,0 711,-19"/>
<text text-anchor="middle" x="690.5" y="-7" font-family="Helvetica,sans-Serif" font-size="10.00">string</text>
</a>
</g>
</g>
<!-- Node2&#45;&gt;Node5 -->
<g id="edge4_Node000002_Node000005" class="edge">
<title>Node2&#45;&gt;Node5</title>
<g id="a_edge4_Node000002_Node000005"><a xlink:title=" ">
<path fill="none" stroke="#63b8ff" d="M676.04,-164.99C683.67,-145.67 700.78,-96.92 697.5,-55 696.84,-46.52 695.47,-37.22 694.13,-29.32"/>
<polygon fill="#63b8ff" stroke="#63b8ff" points="697.54,-28.53 692.3,-19.32 690.65,-29.78 697.54,-28.53"/>
</a>
</g>
</g>
<!-- Node2&#45;&gt;Node6 -->
<g id="edge5_Node000002_Node000006" class="edge">
<title>Node2&#45;&gt;Node6</title>
<g id="a_edge5_Node000002_Node000006"><a xlink:title=" ">
<path fill="none" stroke="#63b8ff" d="M687.44,-164.98C702,-156.69 724.37,-143.94 741.43,-134.22"/>
<polygon fill="#63b8ff" stroke="#63b8ff" points="743.33,-137.16 750.29,-129.17 739.86,-131.08 743.33,-137.16"/>
</a>
</g>
</g>
<!-- Node7 -->
<g id="Node000007" class="node">
<title>Node7</title>
<g id="a_Node000007"><a xlink:href="Type_8h.html" target="_top" xlink:title="Defines the basic types supported by the Rivet type system.">
<polygon fill="white" stroke="#666666" points="688.5,-74 642.5,-74 642.5,-55 688.5,-55 688.5,-74"/>
<text text-anchor="middle" x="665.5" y="-62" font-family="Helvetica,sans-Serif" font-size="10.00">Type.h</text>
</a>
</g>
</g>
<!-- Node2&#45;&gt;Node7 -->
<g id="edge6_Node000002_Node000007" class="edge">
<title>Node2&#45;&gt;Node7</title>
<g id="a_edge6_Node000002_Node000007"><a xlink:title=" ">
<path fill="none" stroke="#63b8ff" d="M671.93,-164.66C670.79,-147.17 668.24,-107.8 666.72,-84.27"/>
<polygon fill="#63b8ff" stroke="#63b8ff" points="670.2,-83.91 666.06,-74.16 663.22,-84.36 670.2,-83.91"/>
</a>
</g>
</g>
<!-- Node8 -->
<g id="Node000008" class="node">
<title>Node8</title>
<g id="a_Node000008"><a xlink:href="SymbolTable_8h.html" target="_top" xlink:title="Defines the scoped symbol table for semantic analysis.">
<polygon fill="white" stroke="#666666" points="644,-129 563,-129 563,-110 644,-110 644,-129"/>
<text text-anchor="middle" x="603.5" y="-117" font-family="Helvetica,sans-Serif" font-size="10.00">SymbolTable.h</text>
</a>
</g>
</g>
<!-- Node2&#45;&gt;Node8 -->
<g id="edge8_Node000002_Node000008" class="edge">
<title>Node2&#45;&gt;Node8</title>
<g id="a_edge8_Node000002_Node000008"><a xlink:title=" ">
<path fill="none" stroke="#63b8ff" d="M661.41,-164.98C651.01,-157 635.24,-144.88 622.78,-135.31"/>
<polygon fill="#63b8ff" stroke="#63b8ff" points="624.85,-132.49 614.79,-129.17 620.59,-138.04 624.85,-132.49"/>
</a>
</g>
</g>
<!-- Node7&#45;&gt;Node5 -->
<g id="edge7_Node000007_Node000005" class="edge">
<title>Node7&#45;&gt;Node5</title>
<g id="a_edge7_Node000007_Node000005"><a xlink:title=" ">
<path fill="none" stroke="#63b8ff" d="M669.63,-54.75C673.01,-47.57 677.92,-37.18 682.12,-28.27"/>
<polygon fill="#63b8ff" stroke="#63b8ff" points="685.35,-29.63 686.45,-19.09 679.02,-26.64 685.35,-29.63"/>
</a>
</g>
</g>
<!-- Node8&#45;&gt;Node4 -->
<g id="edge12_Node000008_Node000004" class="edge">
<title>Node8&#45;&gt;Node4</title>
<g id="a_edge12_Node000008_Node000004"><a xlink:title=" ">
<path fill="none" stroke="#63b8ff" d="M580.85,-109.98C557.38,-101.16 520.51,-87.31 494.17,-77.4"/>
<polygon fill="#63b8ff" stroke="#63b8ff" points="495.23,-74.06 484.63,-73.82 492.76,-80.61 495.23,-74.06"/>
</a>
</g>
</g>
<!-- Node8&#45;&gt;Node5 -->
<g id="edge10_Node000008_Node000005" class="edge">
<title>Node8&#45;&gt;Node5</title>
<g id="a_edge10_Node000008_Node000005"><a xlink:title=" ">
<path fill="none" stroke="#63b8ff" d="M579.74,-109.85C552.63,-98.65 514.18,-77.84 531.5,-55 546.99,-34.58 618.44,-20.97 660.1,-14.62"/>
<polygon fill="#63b8ff" stroke="#63b8ff" points="660.61,-18.09 670,-13.17 659.59,-11.16 660.61,-18.09"/>
</a>
</g>
</g>
<!-- Node8&#45;&gt;Node7 -->
<g id="edge9_Node000008_Node000007" class="edge">
<title>Node8&#45;&gt;Node7</title>
<g id="a_edge9_Node000008_Node000007"><a xlink:title=" ">
<path fill="none" stroke="#63b8ff" d="M613.46,-109.98C622.63,-102.15 636.44,-90.34 647.53,-80.86"/>
<polygon fill="#63b8ff" stroke="#63b8ff" points="650.03,-83.33 655.36,-74.17 645.48,-78.01 650.03,-83.33"/>
</a>
</g>
</g>
<!-- Node9 -->
<g id="Node000009" class="node">
<title>Node9</title>
<g id="a_Node000009"><a xlink:title=" ">
<polygon fill="#e0e0e0" stroke="#999999" points="624,-74 541,-74 541,-55 624,-55 624,-74"/>
<text text-anchor="middle" x="582.5" y="-62" font-family="Helvetica,sans-Serif" font-size="10.00">unordered_map</text>
</a>
</g>
</g>
<!-- Node8&#45;&gt;Node9 -->
<g id="edge11_Node000008_Node000009" class="edge">
<title>Node8&#45;&gt;Node9</title>
<g id="a_edge11_Node000008_Node000009"><a xlink:title=" ">
<path fill="none" stroke="#63b8ff" d="M600.03,-109.75C597.22,-102.65 593.16,-92.4 589.65,-83.56"/>
<polygon fill="#63b8ff" stroke="#63b8ff" points="592.84,-82.1 585.9,-74.09 586.33,-84.68 592.84,-82.1"/>
</a>
</g>
</g>
<!-- Node10&#45;&gt;Node5 -->
<g id="edge14_Node000010_Node000005" class="edge">
<title>Node10&#45;&gt;Node5</title>
<g id="a_edge14_Node000010_Node000005"><a xlink:title=" ">
<path fill="none" stroke="#63b8ff" d="M838.92,-164.94C855.89,-152.98 881.54,-130.46 869.5,-110 837.34,-55.33 763.09,-28.54 721.02,-17.32"/>
<polygon fill="#63b8ff" stroke="#63b8ff" points="721.61,-13.86 711.06,-14.79 719.89,-20.64 721.61,-13.86"/>
</a>
</g>
</g>
<!-- Node11 -->
<g id="Node000011" class="node">
<title>Node11</title>
<g id="a_Node000011"><a xlink:title=" ">
<polygon fill="#e0e0e0" stroke="#999999" points="860.5,-129 810.5,-129 810.5,-110 860.5,-110 860.5,-129"/>
<text text-anchor="middle" x="835.5" y="-117" font-family="Helvetica,sans-Serif" font-size="10.00">fstream</text>
</a>
</g>
</g>
<!-- Node10&#45;&gt;Node11 -->
<g id="edge15_Node000010_Node000011" class="edge">
<title>Node10&#45;&gt;Node11</title>
<g id="a_edge15_Node000010_Node000011"><a xlink:title=" ">
<path fill="none" stroke="#63b8ff" d="M827.15,-164.75C828.46,-157.8 830.34,-147.85 831.98,-139.13"/>
<polygon fill="#63b8ff" stroke="#63b8ff" points="835.46,-139.56 833.88,-129.09 828.59,-138.27 835.46,-139.56"/>
</a>
</g>
</g>
<!-- Node12&#45;&gt;Node3 -->
<g id="edge20_Node000012_Node000003" class="edge">
<title>Node12&#45;&gt;Node3</title>
<g id="a_edge20_Node000012_Node000003"><a xlink:title=" ">
<path fill="none" stroke="#63b8ff" d="M316.83,-164.98C351.67,-155.52 407.84,-140.25 444.47,-130.29"/>
<polygon fill="#63b8ff" stroke="#63b8ff" points="445.52,-133.64 454.25,-127.63 443.68,-126.88 445.52,-133.64"/>
</a>
</g>
</g>
<!-- Node13 -->
<g id="Node000013" class="node">
<title>Node13</title>
<g id="a_Node000013"><a xlink:title=" ">
<polygon fill="#e0e0e0" stroke="#999999" points="281,-129 162,-129 162,-110 281,-110 281,-129"/>
<text text-anchor="middle" x="221.5" y="-117" font-family="Helvetica,sans-Serif" font-size="10.00">llvm/IR/LLVMContext.h</text>
</a>
</g>
</g>
<!-- Node12&#45;&gt;Node13 -->
<g id="edge17_Node000012_Node000013" class="edge">
<title>Node12&#45;&gt;Node13</title>
<g id="a_edge17_Node000012_Node000013"><a xlink:title=" ">
<path fill="none" stroke="#63b8ff" d="M275.22,-164.98C265.66,-157.07 251.22,-145.11 239.72,-135.58"/>
<polygon fill="#63b8ff" stroke="#63b8ff" points="241.9,-132.85 231.97,-129.17 237.44,-138.24 241.9,-132.85"/>
</a>
</g>
</g>
<!-- Node14 -->
<g id="Node000014" class="node">
<title>Node14</title>
<g id="a_Node000014"><a xlink:title=" ">
<polygon fill="#e0e0e0" stroke="#999999" points="398,-129 299,-129 299,-110 398,-110 398,-129"/>
<text text-anchor="middle" x="348.5" y="-117" font-family="Helvetica,sans-Serif" font-size="10.00">llvm/IR/IRBuilder.h</text>
</a>
</g>
</g>
<!-- Node12&#45;&gt;Node14 -->
<g id="edge18_Node000012_Node000014" class="edge">
<title>Node12&#45;&gt;Node14</title>
<g id="a_edge18_Node000012_Node000014"><a xlink:title=" ">
<path fill="none" stroke="#63b8ff" d="M295.62,-164.98C304.94,-157.15 318.97,-145.34 330.24,-135.86"/>
<polygon fill="#63b8ff" stroke="#63b8ff" points="332.79,-138.29 338.19,-129.17 328.29,-132.93 332.79,-138.29"/>
</a>
</g>
</g>
<!-- Node15 -->
<g id="Node000015" class="node">
<title>Node15</title>
<g id="a_Node000015"><a xlink:title=" ">
<polygon fill="#e0e0e0" stroke="#999999" points="91,-129 0,-129 0,-110 91,-110 91,-129"/>
<text text-anchor="middle" x="45.5" y="-117" font-family="Helvetica,sans-Serif" font-size="10.00">llvm/IR/Module.h</text>
</a>
</g>
</g>
<!-- Node12&#45;&gt;Node15 -->
<g id="edge19_Node000012_Node000015" class="edge">
<title>Node12&#45;&gt;Node15</title>
<g id="a_edge19_Node000012_Node000015"><a xlink:title=" ">
<path fill="none" stroke="#63b8ff" d="M246.94,-164.98C205.43,-155.82 139.29,-141.21 94.21,-131.26"/>
<polygon fill="#63b8ff" stroke="#63b8ff" points="94.88,-127.82 84.36,-129.08 93.37,-134.66 94.88,-127.82"/>
</a>
</g>
</g>
<!-- Node16 -->
<g id="Node000016" class="node">
<title>Node16</title>
<g id="a_Node000016"><a xlink:title=" ">
<polygon fill="#e0e0e0" stroke="#999999" points="144,-129 109,-129 109,-110 144,-110 144,-129"/>
<text text-anchor="middle" x="126.5" y="-117" font-family="Helvetica,sans-Serif" font-size="10.00">map</text>
</a>
</g>
</g>
<!-- Node12&#45;&gt;Node16 -->
<g id="edge21_Node000012_Node000016" class="edge">
<title>Node12&#45;&gt;Node16</title>
<g id="a_edge21_Node000012_Node000016"><a xlink:title=" ">
<path fill="none" stroke="#63b8ff" d="M259.95,-164.98C230.9,-155.3 183.64,-139.55 153.85,-129.62"/>
<polygon fill="#63b8ff" stroke="#63b8ff" points="154.7,-126.21 144.11,-126.37 152.49,-132.85 154.7,-126.21"/>
</a>
</g>
</g>
</g>
</svg>
