<?xml version="1.0" encoding="UTF-8" standalone="no"?>
<!DOCTYPE svg PUBLIC "-//W3C//DTD SVG 1.1//EN"
 "http://www.w3.org/Graphics/SVG/1.1/DTD/svg11.dtd">
<!-- Generated by graphviz version 2.43.0 (0)
 -->
<!-- Title: Rivet::BinaryOpAST Pages: 1 -->
<svg width="108pt" height="247pt"
 viewBox="0.00 0.00 108.00 247.00" xmlns="http://www.w3.org/2000/svg" xmlns:xlink="http://www.w3.org/1999/xlink">
<g id="graph0" class="graph" transform="scale(1 1) rotate(0) translate(4 243)">
<title>Rivet::BinaryOpAST</title>
<!-- Node1 -->
<g id="Node000001" class="node">
<title>Node1</title>
<g id="a_Node000001"><a xlink:title="Node containing binary operators (e.g.">
<polygon fill="#999999" stroke="transparent" points="100,-94 0,-94 0,0 100,0 100,-94"/>
<text text-anchor="start" x="5" y="-82" font-family="Helvetica,sans-Serif" font-size="10.00">Rivet::BinaryOpAST</text>
<text text-anchor="start" x="48" y="-67" font-family="Helvetica,sans-Serif" font-size="10.00"> </text>
<text text-anchor="start" x="7.5" y="-52" font-family="Helvetica,sans-Serif" font-size="10.00">+</text>
<text text-anchor="start" x="22" y="-52" font-family="Helvetica,sans-Serif" font-size="10.00">BinaryOpAST()</text>
<text text-anchor="start" x="7.5" y="-37" font-family="Helvetica,sans-Serif" font-size="10.00">+</text>
<text text-anchor="start" x="22" y="-37" font-family="Helvetica,sans-Serif" font-size="10.00">codegen()</text>
<text text-anchor="start" x="7.5" y="-22" font-family="Helvetica,sans-Serif" font-size="10.00">+</text>
<text text-anchor="start" x="22" y="-22" font-family="Helvetica,sans-Serif" font-size="10.00">dump()</text>
<text text-anchor="start" x="7.5" y="-7" font-family="Helvetica,sans-Serif" font-size="10.00">+</text>
<text text-anchor="start" x="22" y="-7" font-family="Helvetica,sans-Serif" font-size="10.00">typeCheck()</text>
<polygon fill="#666666" stroke="#666666" points="0,-77 0,-77 100,-77 100,-77 0,-77"/>
<polygon fill="#666666" stroke="#666666" points="0,-62 0,-62 100,-62 100,-62 0,-62"/>
<polygon fill="none" stroke="#666666" points="0,0 0,-94 100,-94 100,0 0,0"/>
</a>
</g>
</g>
<!-- Node2 -->
<g id="Node000002" class="node">
<title>Node2</title>
<g id="a_Node000002"><a xlink:href="classRivet_1_1ASTNode.html" target="_top" xlink:title="The pure virtual base class for all Abstract Syntax Tree nodes.">
<polygon fill="white" stroke="transparent" points="91.5,-239 8.5,-239 8.5,-130 91.5,-130 91.5,-239"/>
<text text-anchor="start" x="14" y="-226.5" font-family="Helvetica,sans-Serif" font-size="10.00">Rivet::ASTNode</text>
<text text-anchor="start" x="15" y="-211.5" font-family="Helvetica,sans-Serif" font-size="10.00">+</text>
<text text-anchor="start" x="28" y="-211.5" font-family="Helvetica,sans-Serif" font-size="10.00">ExprType</text>
<text text-anchor="start" x="15" y="-196.5" font-family="Helvetica,sans-Serif" font-size="10.00">+</text>
<text text-anchor="start" x="28" y="-196.5" font-family="Helvetica,sans-Serif" font-size="10.00">codegen()</text>
<text text-anchor="start" x="15" y="-181.5" font-family="Helvetica,sans-Serif" font-size="10.00">+</text>
<text text-anchor="start" x="28" y="-181.5" font-family="Helvetica,sans-Serif" font-size="10.00">dump()</text>
<text text-anchor="start" x="15" y="-166.5" font-family="Helvetica,sans-Serif" font-size="10.00">+</text>
<text text-anchor="start" x="28" y="-166.5" font-family="Helvetica,sans-Serif" font-size="10.00">typeCheck()</text>
<text text-anchor="start" x="15" y="-151.5" font-family="Helvetica,sans-Serif" font-size="10.00">+</text>
<text text-anchor="start" x="28" y="-151.5" font-family="Helvetica,sans-Serif" font-size="10.00">~ASTNode()</text>
<text text-anchor="start" x="15.5" y="-136.5" font-family="Helvetica,sans-Serif" font-size="10.00">#</text>
<text text-anchor="start" x="28" y="-136.5" font-family="Helvetica,sans-Serif" font-size="10.00">printIndent()</text>
<polygon fill="#666666" stroke="#666666" points="9,-221.5 9,-221.5 92,-221.5 92,-221.5 9,-221.5"/>
<polygon fill="#666666" stroke="#666666" points="9,-206.5 9,-206.5 26,-206.5 26,-206.5 9,-206.5"/>
<polygon fill="#666666" stroke="#666666" points="26,-206.5 26,-206.5 92,-206.5 92,-206.5 26,-206.5"/>
<polygon fill="none" stroke="#666666" points="8.5,-130 8.5,-239 91.5,-239 91.5,-130 8.5,-130"/>
</a>
</g>
</g>
<!-- Node2&#45;&gt;Node1 -->
<g id="edge1_Node000001_Node000002" class="edge">
<title>Node2&#45;&gt;Node1</title>
<g id="a_edge1_Node000001_Node000002"><a xlink:title=" ">
<path fill="none" stroke="#63b8ff" d="M50,-119.85C50,-111.19 50,-102.43 50,-94.16"/>
<polygon fill="none" stroke="#63b8ff" points="46.5,-119.95 50,-129.95 53.5,-119.95 46.5,-119.95"/>
</a>
</g>
</g>
</g>
</svg>
