<?xml version="1.0" encoding="UTF-8" standalone="no"?>
<!DOCTYPE svg PUBLIC "-//W3C//DTD SVG 1.1//EN"
 "http://www.w3.org/Graphics/SVG/1.1/DTD/svg11.dtd">
<!-- Generated by graphviz version 2.43.0 (0)
 -->
<!-- Title: Rivet::ASTNode Pages: 1 -->
<svg width="101pt" height="318pt"
 viewBox="0.00 0.00 100.50 318.00" xmlns="http://www.w3.org/2000/svg" xmlns:xlink="http://www.w3.org/1999/xlink">
<g id="graph0" class="graph" transform="scale(1 1) rotate(0) translate(4 314)">
<title>Rivet::ASTNode</title>
<!-- Node1 -->
<g id="Node000001" class="node">
<title>Node1</title>
<g id="a_Node000001"><a xlink:title="The pure virtual base class for all Abstract Syntax Tree nodes.">
<polygon fill="#999999" stroke="transparent" points="83,-109 0,-109 0,0 83,0 83,-109"/>
<text text-anchor="start" x="5.5" y="-96.5" font-family="Helvetica,sans-Serif" font-size="10.00">Rivet::ASTNode</text>
<text text-anchor="start" x="40" y="-81.5" font-family="Helvetica,sans-Serif" font-size="10.00"> </text>
<text text-anchor="start" x="6.5" y="-66.5" font-family="Helvetica,sans-Serif" font-size="10.00">+</text>
<text text-anchor="start" x="19.5" y="-66.5" font-family="Helvetica,sans-Serif" font-size="10.00">codegen()</text>
<text text-anchor="start" x="6.5" y="-51.5" font-family="Helvetica,sans-Serif" font-size="10.00">+</text>
<text text-anchor="start" x="19.5" y="-51.5" font-family="Helvetica,sans-Serif" font-size="10.00">dump()</text>
<text text-anchor="start" x="6.5" y="-36.5" font-family="Helvetica,sans-Serif" font-size="10.00">+</text>
<text text-anchor="start" x="19.5" y="-36.5" font-family="Helvetica,sans-Serif" font-size="10.00">typeCheck()</text>
<text text-anchor="start" x="6.5" y="-21.5" font-family="Helvetica,sans-Serif" font-size="10.00">+</text>
<text text-anchor="start" x="19.5" y="-21.5" font-family="Helvetica,sans-Serif" font-size="10.00">~ASTNode()</text>
<text text-anchor="start" x="7" y="-6.5" font-family="Helvetica,sans-Serif" font-size="10.00">#</text>
<text text-anchor="start" x="19.5" y="-6.5" font-family="Helvetica,sans-Serif" font-size="10.00">printIndent()</text>
<polygon fill="#666666" stroke="#666666" points="0.5,-91.5 0.5,-91.5 83.5,-91.5 83.5,-91.5 0.5,-91.5"/>
<polygon fill="#666666" stroke="#666666" points="0.5,-76.5 0.5,-76.5 83.5,-76.5 83.5,-76.5 0.5,-76.5"/>
<polygon fill="none" stroke="#666666" points="0,0 0,-109 83,-109 83,0 0,0"/>
</a>
</g>
</g>
<!-- Node2 -->
<g id="Node000002" class="node">
<title>Node2</title>
<g id="a_Node000002"><a xlink:href="structRivet_1_1TypeInfo.html" target="_top" xlink:title="Encapsulates a data type, its reference semantics, and array capacity if applicable.">
<polygon fill="white" stroke="transparent" points="82.5,-310 0.5,-310 0.5,-156 82.5,-156 82.5,-310"/>
<text text-anchor="start" x="8" y="-298" font-family="Helvetica,sans-Serif" font-size="10.00">Rivet::TypeInfo</text>
<text text-anchor="start" x="4.5" y="-283" font-family="Helvetica,sans-Serif" font-size="10.00">+</text>
<text text-anchor="start" x="15.5" y="-283" font-family="Helvetica,sans-Serif" font-size="10.00">ArrayCapacity</text>
<text text-anchor="start" x="4.5" y="-268" font-family="Helvetica,sans-Serif" font-size="10.00">+</text>
<text text-anchor="start" x="15.5" y="-268" font-family="Helvetica,sans-Serif" font-size="10.00">Base</text>
<text text-anchor="start" x="4.5" y="-253" font-family="Helvetica,sans-Serif" font-size="10.00">+</text>
<text text-anchor="start" x="15.5" y="-253" font-family="Helvetica,sans-Serif" font-size="10.00">IsRef</text>
<text text-anchor="start" x="4.5" y="-238" font-family="Helvetica,sans-Serif" font-size="10.00">+</text>
<text text-anchor="start" x="15.5" y="-238" font-family="Helvetica,sans-Serif" font-size="10.00">isArray()</text>
<text text-anchor="start" x="4.5" y="-223" font-family="Helvetica,sans-Serif" font-size="10.00">+</text>
<text text-anchor="start" x="15.5" y="-223" font-family="Helvetica,sans-Serif" font-size="10.00">operator!=()</text>
<text text-anchor="start" x="4.5" y="-208" font-family="Helvetica,sans-Serif" font-size="10.00">+</text>
<text text-anchor="start" x="15.5" y="-208" font-family="Helvetica,sans-Serif" font-size="10.00">operator==()</text>
<text text-anchor="start" x="4.5" y="-193" font-family="Helvetica,sans-Serif" font-size="10.00">+</text>
<text text-anchor="start" x="15.5" y="-193" font-family="Helvetica,sans-Serif" font-size="10.00">toString()</text>
<text text-anchor="start" x="4.5" y="-178" font-family="Helvetica,sans-Serif" font-size="10.00">+</text>
<text text-anchor="start" x="15.5" y="-178" font-family="Helvetica,sans-Serif" font-size="10.00">TypeInfo()</text>
<text text-anchor="start" x="4.5" y="-163" font-family="Helvetica,sans-Serif" font-size="10.00">+</text>
<text text-anchor="start" x="15.5" y="-163" font-family="Helvetica,sans-Serif" font-size="10.00">TypeInfo()</text>
<polygon fill="#666666" stroke="#666666" points="0.5,-293 0.5,-293 82.5,-293 82.5,-293 0.5,-293"/>
<polygon fill="#666666" stroke="#666666" points="0.5,-248 0.5,-248 13.5,-248 13.5,-248 0.5,-248"/>
<polygon fill="#666666" stroke="#666666" points="13.5,-248 13.5,-248 82.5,-248 82.5,-248 13.5,-248"/>
<polygon fill="none" stroke="#666666" points="0.5,-156 0.5,-310 82.5,-310 82.5,-156 0.5,-156"/>
</a>
</g>
</g>
<!-- Node2&#45;&gt;Node1 -->
<g id="edge1_Node000001_Node000002" class="edge">
<title>Node2&#45;&gt;Node1</title>
<g id="a_edge1_Node000001_Node000002"><a xlink:title=" ">
<path fill="none" stroke="#63b8ff" d="M41.5,-155.87C41.5,-144.29 41.5,-132.42 41.5,-121.1"/>
<polygon fill="none" stroke="#63b8ff" points="41.5,-121.05 37.5,-115.05 41.5,-109.05 45.5,-115.05 41.5,-121.05"/>
</a>
</g>
<text text-anchor="middle" x="67" y="-130" font-family="Helvetica,sans-Serif" font-size="10.00" fill="grey"> +ExprType</text>
</g>
</g>
</svg>
