<?xml version="1.0" encoding="UTF-8" standalone="no"?>
<!DOCTYPE svg PUBLIC "-//W3C//DTD SVG 1.1//EN"
 "http://www.w3.org/Graphics/SVG/1.1/DTD/svg11.dtd">
<!-- Generated by graphviz version 2.43.0 (0)
 -->
<!-- Title: Rivet::ASTNode::printIndent Pages: 1 -->
<svg width="317pt" height="785pt"
 viewBox="0.00 0.00 317.00 784.50" xmlns="http://www.w3.org/2000/svg" xmlns:xlink="http://www.w3.org/1999/xlink">
<g id="graph0" class="graph" transform="scale(1 1) rotate(0) translate(4 780.5)">
<title>Rivet::ASTNode::printIndent</title>
<!-- Node1 -->
<g id="Node000001" class="node">
<title>Node1</title>
<g id="a_Node000001"><a xlink:title="A helper to simplify recursively nested string output in Dumps.">
<polygon fill="#999999" stroke="#666666" points="309,-387.5 169,-387.5 169,-368.5 309,-368.5 309,-387.5"/>
<text text-anchor="middle" x="239" y="-375.5" font-family="Helvetica,sans-Serif" font-size="10.00">Rivet::ASTNode::printIndent</text>
</a>
</g>
</g>
<!-- Node2 -->
<g id="Node000002" class="node">
<title>Node2</title>
<g id="a_Node000002"><a xlink:href="classRivet_1_1NumberAST.html#a31a2cd0436cda41ea3454df6302fc7d5" target="_top" xlink:title="Recursively prints out the structure of the AST via stdout.">
<polygon fill="white" stroke="#666666" points="130.5,-776.5 2.5,-776.5 2.5,-757.5 130.5,-757.5 130.5,-776.5"/>
<text text-anchor="middle" x="66.5" y="-764.5" font-family="Helvetica,sans-Serif" font-size="10.00">Rivet::NumberAST::dump</text>
</a>
</g>
</g>
<!-- Node1&#45;&gt;Node2 -->
<g id="edge1_Node000001_Node000002" class="edge">
<title>Node1&#45;&gt;Node2</title>
<g id="a_edge1_Node000001_Node000002"><a xlink:title=" ">
<path fill="none" stroke="#63b8ff" d="M238.6,-397.86C239.34,-459.19 232.95,-647.46 133,-748 129.16,-751.86 124.59,-754.95 119.66,-757.42"/>
<polygon fill="#63b8ff" stroke="#63b8ff" points="242.1,-397.57 238.4,-387.64 235.1,-397.71 242.1,-397.57"/>
</a>
</g>
</g>
<!-- Node3 -->
<g id="Node000003" class="node">
<title>Node3</title>
<g id="a_Node000003"><a xlink:href="classRivet_1_1StringLiteralAST.html#a0d93715ced5b9d5f4f486a5fe733340a" target="_top" xlink:title="Recursively prints out the structure of the AST via stdout.">
<polygon fill="white" stroke="#666666" points="125,-739 8,-739 8,-709 125,-709 125,-739"/>
<text text-anchor="start" x="16" y="-727" font-family="Helvetica,sans-Serif" font-size="10.00">Rivet::StringLiteralAST</text>
<text text-anchor="middle" x="66.5" y="-716" font-family="Helvetica,sans-Serif" font-size="10.00">::dump</text>
</a>
</g>
</g>
<!-- Node1&#45;&gt;Node3 -->
<g id="edge2_Node000001_Node000003" class="edge">
<title>Node1&#45;&gt;Node3</title>
<g id="a_edge2_Node000001_Node000003"><a xlink:title=" ">
<path fill="none" stroke="#63b8ff" d="M237.29,-397.9C234.26,-453.42 218.18,-611.7 133,-700 129.72,-703.4 125.92,-706.32 121.83,-708.83"/>
<polygon fill="#63b8ff" stroke="#63b8ff" points="240.8,-397.83 237.76,-387.68 233.81,-397.51 240.8,-397.83"/>
</a>
</g>
</g>
<!-- Node4 -->
<g id="Node000004" class="node">
<title>Node4</title>
<g id="a_Node000004"><a xlink:href="classRivet_1_1NullLiteralAST.html#a12005a2c01a13bbbcf3e5da315a117a1" target="_top" xlink:title="Recursively prints out the structure of the AST via stdout.">
<polygon fill="white" stroke="#666666" points="121,-691 12,-691 12,-661 121,-661 121,-691"/>
<text text-anchor="start" x="20" y="-679" font-family="Helvetica,sans-Serif" font-size="10.00">Rivet::NullLiteralAST</text>
<text text-anchor="middle" x="66.5" y="-668" font-family="Helvetica,sans-Serif" font-size="10.00">::dump</text>
</a>
</g>
</g>
<!-- Node1&#45;&gt;Node4 -->
<g id="edge3_Node000001_Node000004" class="edge">
<title>Node1&#45;&gt;Node4</title>
<g id="a_edge3_Node000001_Node000004"><a xlink:title=" ">
<path fill="none" stroke="#63b8ff" d="M236.02,-397.54C229.98,-447.05 207.4,-578.69 133,-652 129.46,-655.49 125.38,-658.47 121.01,-661.02"/>
<polygon fill="#63b8ff" stroke="#63b8ff" points="239.5,-397.86 237.15,-387.53 232.55,-397.08 239.5,-397.86"/>
</a>
</g>
</g>
<!-- Node5 -->
<g id="Node000005" class="node">
<title>Node5</title>
<g id="a_Node000005"><a xlink:href="classRivet_1_1VariableAST.html#a61456353c32dc6674a261a7bdbeabcc4" target="_top" xlink:title="Recursively prints out the structure of the AST via stdout.">
<polygon fill="white" stroke="#666666" points="116.5,-643 16.5,-643 16.5,-613 116.5,-613 116.5,-643"/>
<text text-anchor="start" x="24.5" y="-631" font-family="Helvetica,sans-Serif" font-size="10.00">Rivet::VariableAST</text>
<text text-anchor="middle" x="66.5" y="-620" font-family="Helvetica,sans-Serif" font-size="10.00">::dump</text>
</a>
</g>
</g>
<!-- Node1&#45;&gt;Node5 -->
<g id="edge4_Node000001_Node000005" class="edge">
<title>Node1&#45;&gt;Node5</title>
<g id="a_edge4_Node000001_Node000005"><a xlink:title=" ">
<path fill="none" stroke="#63b8ff" d="M234.22,-397.55C224.85,-440.83 196.57,-545.54 133,-604 128.28,-608.34 122.7,-611.92 116.83,-614.86"/>
<polygon fill="#63b8ff" stroke="#63b8ff" points="237.65,-398.21 236.24,-387.71 230.8,-396.8 237.65,-398.21"/>
</a>
</g>
</g>
<!-- Node6 -->
<g id="Node000006" class="node">
<title>Node6</title>
<g id="a_Node000006"><a xlink:href="classRivet_1_1VariableDeclAST.html#a09cdd13fbd91df6e48bac14a5d4d3157" target="_top" xlink:title="Recursively prints out the structure of the AST via stdout.">
<polygon fill="white" stroke="#666666" points="126.5,-595 6.5,-595 6.5,-565 126.5,-565 126.5,-595"/>
<text text-anchor="start" x="14.5" y="-583" font-family="Helvetica,sans-Serif" font-size="10.00">Rivet::VariableDeclAST</text>
<text text-anchor="middle" x="66.5" y="-572" font-family="Helvetica,sans-Serif" font-size="10.00">::dump</text>
</a>
</g>
</g>
<!-- Node1&#45;&gt;Node6 -->
<g id="edge5_Node000001_Node000006" class="edge">
<title>Node1&#45;&gt;Node6</title>
<g id="a_edge5_Node000001_Node000006"><a xlink:title=" ">
<path fill="none" stroke="#63b8ff" d="M231.54,-397.47C218.57,-433.73 185.96,-511.88 133,-556 128.91,-559.41 124.28,-562.36 119.44,-564.9"/>
<polygon fill="#63b8ff" stroke="#63b8ff" points="234.98,-398.25 234.94,-387.65 228.36,-395.96 234.98,-398.25"/>
</a>
</g>
</g>
<!-- Node7 -->
<g id="Node000007" class="node">
<title>Node7</title>
<g id="a_Node000007"><a xlink:href="classRivet_1_1BinaryOpAST.html#ad3697347959c0161a117f24730612092" target="_top" xlink:title="Recursively prints out the structure of the AST via stdout.">
<polygon fill="white" stroke="#666666" points="119.5,-547 13.5,-547 13.5,-517 119.5,-517 119.5,-547"/>
<text text-anchor="start" x="21.5" y="-535" font-family="Helvetica,sans-Serif" font-size="10.00">Rivet::BinaryOpAST</text>
<text text-anchor="middle" x="66.5" y="-524" font-family="Helvetica,sans-Serif" font-size="10.00">::dump</text>
</a>
</g>
</g>
<!-- Node1&#45;&gt;Node7 -->
<g id="edge6_Node000001_Node000007" class="edge">
<title>Node1&#45;&gt;Node7</title>
<g id="a_edge6_Node000001_Node000007"><a xlink:title=" ">
<path fill="none" stroke="#63b8ff" d="M227.65,-396.38C211.08,-424.24 176.05,-477.18 133,-508 128.27,-511.38 123.02,-514.34 117.59,-516.92"/>
<polygon fill="#63b8ff" stroke="#63b8ff" points="230.72,-398.05 232.72,-387.65 224.67,-394.54 230.72,-398.05"/>
</a>
</g>
</g>
<!-- Node8 -->
<g id="Node000008" class="node">
<title>Node8</title>
<g id="a_Node000008"><a xlink:href="classRivet_1_1UnaryOpAST.html#ab1da96c508d1fd145da4dcc9730e3c70" target="_top" xlink:title="Recursively prints out the structure of the AST via stdout.">
<polygon fill="white" stroke="#666666" points="133,-498.5 0,-498.5 0,-479.5 133,-479.5 133,-498.5"/>
<text text-anchor="middle" x="66.5" y="-486.5" font-family="Helvetica,sans-Serif" font-size="10.00">Rivet::UnaryOpAST::dump</text>
</a>
</g>
</g>
<!-- Node1&#45;&gt;Node8 -->
<g id="edge7_Node000001_Node000008" class="edge">
<title>Node1&#45;&gt;Node8</title>
<g id="a_edge7_Node000001_Node000008"><a xlink:title=" ">
<path fill="none" stroke="#63b8ff" d="M223.16,-395.29C204.27,-416.22 169.67,-451.13 133,-471 126.78,-474.37 119.88,-477.15 112.95,-479.43"/>
<polygon fill="#63b8ff" stroke="#63b8ff" points="225.81,-397.57 229.82,-387.76 220.57,-392.93 225.81,-397.57"/>
</a>
</g>
</g>
<!-- Node9 -->
<g id="Node000009" class="node">
<title>Node9</title>
<g id="a_Node000009"><a xlink:href="classRivet_1_1BlockAST.html#a629a5877bb5ea5ad6e7f2fedb6933165" target="_top" xlink:title="Recursively prints out the structure of the AST via stdout.">
<polygon fill="white" stroke="#666666" points="126,-461.5 7,-461.5 7,-442.5 126,-442.5 126,-461.5"/>
<text text-anchor="middle" x="66.5" y="-449.5" font-family="Helvetica,sans-Serif" font-size="10.00">Rivet::BlockAST::dump</text>
</a>
</g>
</g>
<!-- Node1&#45;&gt;Node9 -->
<g id="edge8_Node000001_Node000009" class="edge">
<title>Node1&#45;&gt;Node9</title>
<g id="a_edge8_Node000001_Node000009"><a xlink:title=" ">
<path fill="none" stroke="#63b8ff" d="M213.72,-392.95C192.9,-405.27 161.79,-422.53 133,-434 125,-437.19 116.24,-440.02 107.8,-442.44"/>
<polygon fill="#63b8ff" stroke="#63b8ff" points="215.74,-395.82 222.52,-387.67 212.14,-389.81 215.74,-395.82"/>
</a>
</g>
</g>
<!-- Node10 -->
<g id="Node000010" class="node">
<title>Node10</title>
<g id="a_Node000010"><a xlink:href="classRivet_1_1IfAST.html#a3e48062b2b603f648986f8d01db993fa" target="_top" xlink:title="Recursively prints out the structure of the AST via stdout.">
<polygon fill="white" stroke="#666666" points="116.5,-424.5 16.5,-424.5 16.5,-405.5 116.5,-405.5 116.5,-424.5"/>
<text text-anchor="middle" x="66.5" y="-412.5" font-family="Helvetica,sans-Serif" font-size="10.00">Rivet::IfAST::dump</text>
</a>
</g>
</g>
<!-- Node1&#45;&gt;Node10 -->
<g id="edge9_Node000001_Node000010" class="edge">
<title>Node1&#45;&gt;Node10</title>
<g id="a_edge9_Node000001_Node000010"><a xlink:title=" ">
<path fill="none" stroke="#63b8ff" d="M184.31,-389.65C160.89,-394.73 133.76,-400.62 111.56,-405.44"/>
<polygon fill="#63b8ff" stroke="#63b8ff" points="185.06,-393.07 194.09,-387.53 183.58,-386.23 185.06,-393.07"/>
</a>
</g>
</g>
<!-- Node11 -->
<g id="Node000011" class="node">
<title>Node11</title>
<g id="a_Node000011"><a xlink:href="classRivet_1_1WhileAST.html#a7c89945355bb6cd061f03ab698a34f0a" target="_top" xlink:title="Recursively prints out the structure of the AST via stdout.">
<polygon fill="white" stroke="#666666" points="126,-387.5 7,-387.5 7,-368.5 126,-368.5 126,-387.5"/>
<text text-anchor="middle" x="66.5" y="-375.5" font-family="Helvetica,sans-Serif" font-size="10.00">Rivet::WhileAST::dump</text>
</a>
</g>
</g>
<!-- Node1&#45;&gt;Node11 -->
<g id="edge10_Node000001_Node000011" class="edge">
<title>Node1&#45;&gt;Node11</title>
<g id="a_edge10_Node000001_Node000011"><a xlink:title=" ">
<path fill="none" stroke="#63b8ff" d="M158.32,-378C147.48,-378 136.52,-378 126.15,-378"/>
<polygon fill="#63b8ff" stroke="#63b8ff" points="158.65,-381.5 168.65,-378 158.65,-374.5 158.65,-381.5"/>
</a>
</g>
</g>
<!-- Node12 -->
<g id="Node000012" class="node">
<title>Node12</title>
<g id="a_Node000012"><a xlink:href="classRivet_1_1ForAST.html#a084de51c534bfdef6ea562862c1d8fe6" target="_top" xlink:title="Recursively prints out the structure of the AST via stdout.">
<polygon fill="white" stroke="#666666" points="120.5,-350.5 12.5,-350.5 12.5,-331.5 120.5,-331.5 120.5,-350.5"/>
<text text-anchor="middle" x="66.5" y="-338.5" font-family="Helvetica,sans-Serif" font-size="10.00">Rivet::ForAST::dump</text>
</a>
</g>
</g>
<!-- Node1&#45;&gt;Node12 -->
<g id="edge11_Node000001_Node000012" class="edge">
<title>Node1&#45;&gt;Node12</title>
<g id="a_edge11_Node000001_Node000012"><a xlink:title=" ">
<path fill="none" stroke="#63b8ff" d="M184.31,-366.35C160.89,-361.27 133.76,-355.38 111.56,-350.56"/>
<polygon fill="#63b8ff" stroke="#63b8ff" points="183.58,-369.77 194.09,-368.47 185.06,-362.93 183.58,-369.77"/>
</a>
</g>
</g>
<!-- Node13 -->
<g id="Node000013" class="node">
<title>Node13</title>
<g id="a_Node000013"><a xlink:href="classRivet_1_1CallAST.html#a336d3ab5210162eb5700ca580220f85a" target="_top" xlink:title="Recursively prints out the structure of the AST via stdout.">
<polygon fill="white" stroke="#666666" points="122,-313.5 11,-313.5 11,-294.5 122,-294.5 122,-313.5"/>
<text text-anchor="middle" x="66.5" y="-301.5" font-family="Helvetica,sans-Serif" font-size="10.00">Rivet::CallAST::dump</text>
</a>
</g>
</g>
<!-- Node1&#45;&gt;Node13 -->
<g id="edge12_Node000001_Node000013" class="edge">
<title>Node1&#45;&gt;Node13</title>
<g id="a_edge12_Node000001_Node000013"><a xlink:title=" ">
<path fill="none" stroke="#63b8ff" d="M213.28,-363.24C192.41,-351.23 161.48,-334.45 133,-323 124.21,-319.47 114.52,-316.28 105.35,-313.58"/>
<polygon fill="#63b8ff" stroke="#63b8ff" points="211.71,-366.38 222.11,-368.39 215.23,-360.33 211.71,-366.38"/>
</a>
</g>
</g>
<!-- Node14 -->
<g id="Node000014" class="node">
<title>Node14</title>
<g id="a_Node000014"><a xlink:href="classRivet_1_1ReturnAST.html#a205620b573e4b810272702aa896e554f" target="_top" xlink:title="Recursively prints out the structure of the AST via stdout.">
<polygon fill="white" stroke="#666666" points="128,-276.5 5,-276.5 5,-257.5 128,-257.5 128,-276.5"/>
<text text-anchor="middle" x="66.5" y="-264.5" font-family="Helvetica,sans-Serif" font-size="10.00">Rivet::ReturnAST::dump</text>
</a>
</g>
</g>
<!-- Node1&#45;&gt;Node14 -->
<g id="edge13_Node000001_Node000014" class="edge">
<title>Node1&#45;&gt;Node14</title>
<g id="a_edge13_Node000001_Node000014"><a xlink:title=" ">
<path fill="none" stroke="#63b8ff" d="M222.82,-360.71C203.79,-340.07 169.25,-305.85 133,-286 126.04,-282.19 118.24,-279.07 110.51,-276.55"/>
<polygon fill="#63b8ff" stroke="#63b8ff" points="220.46,-363.33 229.76,-368.4 225.66,-358.63 220.46,-363.33"/>
</a>
</g>
</g>
<!-- Node15 -->
<g id="Node000015" class="node">
<title>Node15</title>
<g id="a_Node000015"><a xlink:href="classRivet_1_1FunctionAST.html#a27051eac85a81b859d35c3ad5af1af06" target="_top" xlink:title="Recursively prints out the structure of the AST via stdout.">
<polygon fill="white" stroke="#666666" points="118,-239 15,-239 15,-209 118,-209 118,-239"/>
<text text-anchor="start" x="23" y="-227" font-family="Helvetica,sans-Serif" font-size="10.00">Rivet::FunctionAST</text>
<text text-anchor="middle" x="66.5" y="-216" font-family="Helvetica,sans-Serif" font-size="10.00">::dump</text>
</a>
</g>
</g>
<!-- Node1&#45;&gt;Node15 -->
<g id="edge14_Node000001_Node000015" class="edge">
<title>Node1&#45;&gt;Node15</title>
<g id="a_edge14_Node000001_Node000015"><a xlink:title=" ">
<path fill="none" stroke="#63b8ff" d="M227.56,-359.83C210.88,-332.28 175.7,-279.88 133,-249 127.77,-245.22 121.9,-241.93 115.88,-239.1"/>
<polygon fill="#63b8ff" stroke="#63b8ff" points="224.57,-361.65 232.67,-368.47 230.59,-358.08 224.57,-361.65"/>
</a>
</g>
</g>
<!-- Node16 -->
<g id="Node000016" class="node">
<title>Node16</title>
<g id="a_Node000016"><a xlink:href="classRivet_1_1ImportAST.html#ab3819c88dcabe6bd9a88b7b8ac5bd0db" target="_top" xlink:title="Recursively prints out the structure of the AST via stdout.">
<polygon fill="white" stroke="#666666" points="127.5,-190.5 5.5,-190.5 5.5,-171.5 127.5,-171.5 127.5,-190.5"/>
<text text-anchor="middle" x="66.5" y="-178.5" font-family="Helvetica,sans-Serif" font-size="10.00">Rivet::ImportAST::dump</text>
</a>
</g>
</g>
<!-- Node1&#45;&gt;Node16 -->
<g id="edge15_Node000001_Node000016" class="edge">
<title>Node1&#45;&gt;Node16</title>
<g id="a_edge15_Node000001_Node000016"><a xlink:title=" ">
<path fill="none" stroke="#63b8ff" d="M231.98,-358.65C219.59,-322.03 187.69,-242.45 133,-200 128.04,-196.15 122.33,-193.08 116.39,-190.64"/>
<polygon fill="#63b8ff" stroke="#63b8ff" points="228.66,-359.74 235.09,-368.17 235.31,-357.57 228.66,-359.74"/>
</a>
</g>
</g>
<!-- Node17 -->
<g id="Node000017" class="node">
<title>Node17</title>
<g id="a_Node000017"><a xlink:href="classRivet_1_1AddressOfAST.html#a39c179c7d35cf1571eb05d23470a5e2b" target="_top" xlink:title="Recursively prints out the structure of the AST via stdout.">
<polygon fill="white" stroke="#666666" points="122.5,-153 10.5,-153 10.5,-123 122.5,-123 122.5,-153"/>
<text text-anchor="start" x="18.5" y="-141" font-family="Helvetica,sans-Serif" font-size="10.00">Rivet::AddressOfAST</text>
<text text-anchor="middle" x="66.5" y="-130" font-family="Helvetica,sans-Serif" font-size="10.00">::dump</text>
</a>
</g>
</g>
<!-- Node1&#45;&gt;Node17 -->
<g id="edge16_Node000001_Node000017" class="edge">
<title>Node1&#45;&gt;Node17</title>
<g id="a_edge16_Node000001_Node000017"><a xlink:title=" ">
<path fill="none" stroke="#63b8ff" d="M233.6,-358.35C223.28,-316.62 193.66,-218.45 133,-163 128.78,-159.14 123.9,-155.86 118.74,-153.06"/>
<polygon fill="#63b8ff" stroke="#63b8ff" points="230.25,-359.4 235.96,-368.33 237.06,-357.79 230.25,-359.4"/>
</a>
</g>
</g>
<!-- Node18 -->
<g id="Node000018" class="node">
<title>Node18</title>
<g id="a_Node000018"><a xlink:href="classRivet_1_1DerefAST.html#ae5d50c644bc3ca10ccacf74ef847db1e" target="_top" xlink:title="Recursively prints out the structure of the AST via stdout.">
<polygon fill="white" stroke="#666666" points="125.5,-104.5 7.5,-104.5 7.5,-85.5 125.5,-85.5 125.5,-104.5"/>
<text text-anchor="middle" x="66.5" y="-92.5" font-family="Helvetica,sans-Serif" font-size="10.00">Rivet::DerefAST::dump</text>
</a>
</g>
</g>
<!-- Node1&#45;&gt;Node18 -->
<g id="edge17_Node000001_Node000018" class="edge">
<title>Node1&#45;&gt;Node18</title>
<g id="a_edge17_Node000001_Node000018"><a xlink:title=" ">
<path fill="none" stroke="#63b8ff" d="M236,-358.22C229.97,-309.29 207.54,-181.69 133,-114 128.71,-110.1 123.65,-107 118.3,-104.53"/>
<polygon fill="#63b8ff" stroke="#63b8ff" points="232.55,-358.85 237.15,-368.4 239.5,-358.07 232.55,-358.85"/>
</a>
</g>
</g>
<!-- Node19 -->
<g id="Node000019" class="node">
<title>Node19</title>
<g id="a_Node000019"><a xlink:href="classRivet_1_1IndexAST.html#a708145e30999440ad8cec47ed8ec07e7" target="_top" xlink:title="Recursively prints out the structure of the AST via stdout.">
<polygon fill="white" stroke="#666666" points="125.5,-67.5 7.5,-67.5 7.5,-48.5 125.5,-48.5 125.5,-67.5"/>
<text text-anchor="middle" x="66.5" y="-55.5" font-family="Helvetica,sans-Serif" font-size="10.00">Rivet::IndexAST::dump</text>
</a>
</g>
</g>
<!-- Node1&#45;&gt;Node19 -->
<g id="edge18_Node000001_Node000019" class="edge">
<title>Node1&#45;&gt;Node19</title>
<g id="a_edge18_Node000001_Node000019"><a xlink:title=" ">
<path fill="none" stroke="#63b8ff" d="M237.08,-358.03C233.53,-304.39 216.26,-155.93 133,-77 128.88,-73.09 124,-69.98 118.79,-67.5"/>
<polygon fill="#63b8ff" stroke="#63b8ff" points="233.6,-358.45 237.67,-368.24 240.59,-358.06 233.6,-358.45"/>
</a>
</g>
</g>
<!-- Node20 -->
<g id="Node000020" class="node">
<title>Node20</title>
<g id="a_Node000020"><a xlink:href="classRivet_1_1VolatileStoreAST.html#ac81d05fe6062e4ec6e1b28ea96a2b69e" target="_top" xlink:title="Recursively prints out the structure of the AST via stdout.">
<polygon fill="white" stroke="#666666" points="127,-30 6,-30 6,0 127,0 127,-30"/>
<text text-anchor="start" x="14" y="-18" font-family="Helvetica,sans-Serif" font-size="10.00">Rivet::VolatileStoreAST</text>
<text text-anchor="middle" x="66.5" y="-7" font-family="Helvetica,sans-Serif" font-size="10.00">::dump</text>
</a>
</g>
</g>
<!-- Node1&#45;&gt;Node20 -->
<g id="edge19_Node000001_Node000020" class="edge">
<title>Node1&#45;&gt;Node20</title>
<g id="a_edge19_Node000001_Node000020"><a xlink:title=" ">
<path fill="none" stroke="#63b8ff" d="M237.6,-358.32C235.39,-301.31 221.32,-134.1 133,-40 129.34,-36.09 124.99,-32.79 120.32,-30"/>
<polygon fill="#63b8ff" stroke="#63b8ff" points="234.11,-358.59 237.91,-368.48 241.11,-358.37 234.11,-358.59"/>
</a>
</g>
</g>
</g>
</svg>
