<?xml version="1.0" encoding="UTF-8" standalone="no"?>
<!DOCTYPE svg PUBLIC "-//W3C//DTD SVG 1.1//EN"
 "http://www.w3.org/Graphics/SVG/1.1/DTD/svg11.dtd">
<!-- Generated by graphviz version 2.43.0 (0)
 -->
<!-- Title: Rivet::WhileAST Pages: 1 -->
<svg width="101pt" height="449pt"
 viewBox="0.00 0.00 101.00 449.00" xmlns="http://www.w3.org/2000/svg" xmlns:xlink="http://www.w3.org/1999/xlink">
<g id="graph0" class="graph" transform="scale(1 1) rotate(0) translate(4 445)">
<title>Rivet::WhileAST</title>
<!-- Node1 -->
<g id="Node000001" class="node">
<title>Node1</title>
<g id="a_Node000001"><a xlink:title=" ">
<polygon fill="#999999" stroke="transparent" points="84,-94 0,-94 0,0 84,0 84,-94"/>
<text text-anchor="start" x="5" y="-82" font-family="Helvetica,sans-Serif" font-size="10.00">Rivet::WhileAST</text>
<text text-anchor="start" x="40" y="-67" font-family="Helvetica,sans-Serif" font-size="10.00"> </text>
<text text-anchor="start" x="6.5" y="-52" font-family="Helvetica,sans-Serif" font-size="10.00">+</text>
<text text-anchor="start" x="20" y="-52" font-family="Helvetica,sans-Serif" font-size="10.00">codegen()</text>
<text text-anchor="start" x="6.5" y="-37" font-family="Helvetica,sans-Serif" font-size="10.00">+</text>
<text text-anchor="start" x="20" y="-37" font-family="Helvetica,sans-Serif" font-size="10.00">dump()</text>
<text text-anchor="start" x="6.5" y="-22" font-family="Helvetica,sans-Serif" font-size="10.00">+</text>
<text text-anchor="start" x="20" y="-22" font-family="Helvetica,sans-Serif" font-size="10.00">typeCheck()</text>
<text text-anchor="start" x="6.5" y="-7" font-family="Helvetica,sans-Serif" font-size="10.00">+</text>
<text text-anchor="start" x="20" y="-7" font-family="Helvetica,sans-Serif" font-size="10.00">WhileAST()</text>
<polygon fill="#666666" stroke="#666666" points="0,-77 0,-77 84,-77 84,-77 0,-77"/>
<polygon fill="#666666" stroke="#666666" points="0,-62 0,-62 84,-62 84,-62 0,-62"/>
<polygon fill="none" stroke="#666666" points="0,0 0,-94 84,-94 84,0 0,0"/>
</a>
</g>
</g>
<!-- Node2 -->
<g id="Node000002" class="node">
<title>Node2</title>
<g id="a_Node000002"><a xlink:href="classRivet_1_1ASTNode.html" target="_top" xlink:title=" ">
<polygon fill="white" stroke="transparent" points="83.5,-240 0.5,-240 0.5,-131 83.5,-131 83.5,-240"/>
<text text-anchor="start" x="6" y="-227.5" font-family="Helvetica,sans-Serif" font-size="10.00">Rivet::ASTNode</text>
<text text-anchor="start" x="40.5" y="-212.5" font-family="Helvetica,sans-Serif" font-size="10.00"> </text>
<text text-anchor="start" x="7" y="-197.5" font-family="Helvetica,sans-Serif" font-size="10.00">+</text>
<text text-anchor="start" x="20" y="-197.5" font-family="Helvetica,sans-Serif" font-size="10.00">codegen()</text>
<text text-anchor="start" x="7" y="-182.5" font-family="Helvetica,sans-Serif" font-size="10.00">+</text>
<text text-anchor="start" x="20" y="-182.5" font-family="Helvetica,sans-Serif" font-size="10.00">dump()</text>
<text text-anchor="start" x="7" y="-167.5" font-family="Helvetica,sans-Serif" font-size="10.00">+</text>
<text text-anchor="start" x="20" y="-167.5" font-family="Helvetica,sans-Serif" font-size="10.00">typeCheck()</text>
<text text-anchor="start" x="7" y="-152.5" font-family="Helvetica,sans-Serif" font-size="10.00">+</text>
<text text-anchor="start" x="20" y="-152.5" font-family="Helvetica,sans-Serif" font-size="10.00">~ASTNode()</text>
<text text-anchor="start" x="7.5" y="-137.5" font-family="Helvetica,sans-Serif" font-size="10.00">#</text>
<text text-anchor="start" x="20" y="-137.5" font-family="Helvetica,sans-Serif" font-size="10.00">printIndent()</text>
<polygon fill="#666666" stroke="#666666" points="1,-222.5 1,-222.5 84,-222.5 84,-222.5 1,-222.5"/>
<polygon fill="#666666" stroke="#666666" points="1,-207.5 1,-207.5 84,-207.5 84,-207.5 1,-207.5"/>
<polygon fill="none" stroke="#666666" points="0.5,-131 0.5,-240 83.5,-240 83.5,-131 0.5,-131"/>
</a>
</g>
</g>
<!-- Node2&#45;&gt;Node1 -->
<g id="edge1_Node000001_Node000002" class="edge">
<title>Node2&#45;&gt;Node1</title>
<g id="a_edge1_Node000001_Node000002"><a xlink:title=" ">
<path fill="none" stroke="#63b8ff" d="M42,-120.91C42,-111.95 42,-102.88 42,-94.32"/>
<polygon fill="none" stroke="#63b8ff" points="38.5,-120.94 42,-130.94 45.5,-120.94 38.5,-120.94"/>
</a>
</g>
</g>
<!-- Node3 -->
<g id="Node000003" class="node">
<title>Node3</title>
<g id="a_Node000003"><a xlink:href="structRivet_1_1TypeInfo.html" target="_top" xlink:title=" ">
<polygon fill="white" stroke="transparent" points="83,-441 1,-441 1,-287 83,-287 83,-441"/>
<text text-anchor="start" x="8.5" y="-429" font-family="Helvetica,sans-Serif" font-size="10.00">Rivet::TypeInfo</text>
<text text-anchor="start" x="5" y="-414" font-family="Helvetica,sans-Serif" font-size="10.00">+</text>
<text text-anchor="start" x="16" y="-414" font-family="Helvetica,sans-Serif" font-size="10.00">ArrayCapacity</text>
<text text-anchor="start" x="5" y="-399" font-family="Helvetica,sans-Serif" font-size="10.00">+</text>
<text text-anchor="start" x="16" y="-399" font-family="Helvetica,sans-Serif" font-size="10.00">Base</text>
<text text-anchor="start" x="5" y="-384" font-family="Helvetica,sans-Serif" font-size="10.00">+</text>
<text text-anchor="start" x="16" y="-384" font-family="Helvetica,sans-Serif" font-size="10.00">IsRef</text>
<text text-anchor="start" x="5" y="-369" font-family="Helvetica,sans-Serif" font-size="10.00">+</text>
<text text-anchor="start" x="16" y="-369" font-family="Helvetica,sans-Serif" font-size="10.00">isArray()</text>
<text text-anchor="start" x="5" y="-354" font-family="Helvetica,sans-Serif" font-size="10.00">+</text>
<text text-anchor="start" x="16" y="-354" font-family="Helvetica,sans-Serif" font-size="10.00">operator!=()</text>
<text text-anchor="start" x="5" y="-339" font-family="Helvetica,sans-Serif" font-size="10.00">+</text>
<text text-anchor="start" x="16" y="-339" font-family="Helvetica,sans-Serif" font-size="10.00">operator==()</text>
<text text-anchor="start" x="5" y="-324" font-family="Helvetica,sans-Serif" font-size="10.00">+</text>
<text text-anchor="start" x="16" y="-324" font-family="Helvetica,sans-Serif" font-size="10.00">toString()</text>
<text text-anchor="start" x="5" y="-309" font-family="Helvetica,sans-Serif" font-size="10.00">+</text>
<text text-anchor="start" x="16" y="-309" font-family="Helvetica,sans-Serif" font-size="10.00">TypeInfo()</text>
<text text-anchor="start" x="5" y="-294" font-family="Helvetica,sans-Serif" font-size="10.00">+</text>
<text text-anchor="start" x="16" y="-294" font-family="Helvetica,sans-Serif" font-size="10.00">TypeInfo()</text>
<polygon fill="#666666" stroke="#666666" points="1,-424 1,-424 83,-424 83,-424 1,-424"/>
<polygon fill="#666666" stroke="#666666" points="1,-379 1,-379 14,-379 14,-379 1,-379"/>
<polygon fill="#666666" stroke="#666666" points="14,-379 14,-379 83,-379 83,-379 14,-379"/>
<polygon fill="none" stroke="#666666" points="1,-287 1,-441 83,-441 83,-287 1,-287"/>
</a>
</g>
</g>
<!-- Node3&#45;&gt;Node2 -->
<g id="edge2_Node000002_Node000003" class="edge">
<title>Node3&#45;&gt;Node2</title>
<g id="a_edge2_Node000002_Node000003"><a xlink:title=" ">
<path fill="none" stroke="#63b8ff" d="M42,-286.87C42,-275.29 42,-263.42 42,-252.1"/>
<polygon fill="none" stroke="#63b8ff" points="42,-252.05 38,-246.05 42,-240.05 46,-246.05 42,-252.05"/>
</a>
</g>
<text text-anchor="middle" x="67.5" y="-261" font-family="Helvetica,sans-Serif" font-size="10.00" fill="grey"> +ExprType</text>
</g>
</g>
</svg>
