<?xml version="1.0" encoding="UTF-8" standalone="no"?>
<!DOCTYPE svg PUBLIC "-//W3C//DTD SVG 1.1//EN"
 "http://www.w3.org/Graphics/SVG/1.1/DTD/svg11.dtd">
<!-- Generated by graphviz version 2.43.0 (0)
 -->
<!-- Title: Rivet::StringLiteralAST Pages: 1 -->
<svg width="119pt" height="262pt"
 viewBox="0.00 0.00 119.00 262.00" xmlns="http://www.w3.org/2000/svg" xmlns:xlink="http://www.w3.org/1999/xlink">

<svg id="main" version="1.1" xmlns="http://www.w3.org/2000/svg" xmlns:xlink="http://www.w3.org/1999/xlink" xml:space="preserve" onload="init(evt)">
<style type="text/css"><![CDATA[
.node, .edge {opacity: 0.7;}
.node.selected, .edge.selected {opacity: 1;}
.edge:hover path { stroke: red; }
.edge:hover polygon { stroke: red; fill: red; }
]]></style>
<script type="application/ecmascript" xlink:href="svg.min.js"/>
<svg id="graph" class="graph">
<g id="graph0" class="graph" transform="scale(1 1) rotate(0) translate(4 258)">
<title>Rivet::StringLiteralAST</title>
<!-- Node1 -->
<g id="Node000001" class="node">
<title>Node1</title>
<g id="a_Node000001"><a xlink:title=" ">
<polygon fill="#999999" stroke="transparent" points="111,-109 0,-109 0,0 111,0 111,-109"/>
<text text-anchor="start" x="5.5" y="-96.5" font-family="Helvetica,sans-Serif" font-size="10.00">Rivet::StringLiteralAST</text>
<text text-anchor="start" x="54" y="-81.5" font-family="Helvetica,sans-Serif" font-size="10.00"> </text>
<text text-anchor="start" x="8" y="-66.5" font-family="Helvetica,sans-Serif" font-size="10.00">+</text>
<text text-anchor="start" x="22.5" y="-66.5" font-family="Helvetica,sans-Serif" font-size="10.00">codegen()</text>
<text text-anchor="start" x="8" y="-51.5" font-family="Helvetica,sans-Serif" font-size="10.00">+</text>
<text text-anchor="start" x="22.5" y="-51.5" font-family="Helvetica,sans-Serif" font-size="10.00">dump()</text>
<text text-anchor="start" x="8" y="-36.5" font-family="Helvetica,sans-Serif" font-size="10.00">+</text>
<text text-anchor="start" x="22.5" y="-36.5" font-family="Helvetica,sans-Serif" font-size="10.00">getVal()</text>
<text text-anchor="start" x="8" y="-21.5" font-family="Helvetica,sans-Serif" font-size="10.00">+</text>
<text text-anchor="start" x="22.5" y="-21.5" font-family="Helvetica,sans-Serif" font-size="10.00">StringLiteralAST()</text>
<text text-anchor="start" x="8" y="-6.5" font-family="Helvetica,sans-Serif" font-size="10.00">+</text>
<text text-anchor="start" x="22.5" y="-6.5" font-family="Helvetica,sans-Serif" font-size="10.00">typeCheck()</text>
<polygon fill="#666666" stroke="#666666" points="0.5,-91.5 0.5,-91.5 111.5,-91.5 111.5,-91.5 0.5,-91.5"/>
<polygon fill="#666666" stroke="#666666" points="0.5,-76.5 0.5,-76.5 111.5,-76.5 111.5,-76.5 0.5,-76.5"/>
<polygon fill="none" stroke="#666666" points="0,0 0,-109 111,-109 111,0 0,0"/>
</a>
</g>
</g>
<!-- Node2 -->
<g id="Node000002" class="node">
<title>Node2</title>
<g id="a_Node000002"><a xlink:href="classRivet_1_1ASTNode.html" target="_top" xlink:title=" ">
<polygon fill="white" stroke="transparent" points="97,-254 14,-254 14,-145 97,-145 97,-254"/>
<text text-anchor="start" x="19.5" y="-241.5" font-family="Helvetica,sans-Serif" font-size="10.00">Rivet::ASTNode</text>
<text text-anchor="start" x="20.5" y="-226.5" font-family="Helvetica,sans-Serif" font-size="10.00">+</text>
<text text-anchor="start" x="33.5" y="-226.5" font-family="Helvetica,sans-Serif" font-size="10.00">ExprType</text>
<text text-anchor="start" x="20.5" y="-211.5" font-family="Helvetica,sans-Serif" font-size="10.00">+</text>
<text text-anchor="start" x="33.5" y="-211.5" font-family="Helvetica,sans-Serif" font-size="10.00">codegen()</text>
<text text-anchor="start" x="20.5" y="-196.5" font-family="Helvetica,sans-Serif" font-size="10.00">+</text>
<text text-anchor="start" x="33.5" y="-196.5" font-family="Helvetica,sans-Serif" font-size="10.00">dump()</text>
<text text-anchor="start" x="20.5" y="-181.5" font-family="Helvetica,sans-Serif" font-size="10.00">+</text>
<text text-anchor="start" x="33.5" y="-181.5" font-family="Helvetica,sans-Serif" font-size="10.00">typeCheck()</text>
<text text-anchor="start" x="20.5" y="-166.5" font-family="Helvetica,sans-Serif" font-size="10.00">+</text>
<text text-anchor="start" x="33.5" y="-166.5" font-family="Helvetica,sans-Serif" font-size="10.00">~ASTNode()</text>
<text text-anchor="start" x="21" y="-151.5" font-family="Helvetica,sans-Serif" font-size="10.00">#</text>
<text text-anchor="start" x="33.5" y="-151.5" font-family="Helvetica,sans-Serif" font-size="10.00">printIndent()</text>
<polygon fill="#666666" stroke="#666666" points="14.5,-236.5 14.5,-236.5 97.5,-236.5 97.5,-236.5 14.5,-236.5"/>
<polygon fill="#666666" stroke="#666666" points="14.5,-221.5 14.5,-221.5 31.5,-221.5 31.5,-221.5 14.5,-221.5"/>
<polygon fill="#666666" stroke="#666666" points="31.5,-221.5 31.5,-221.5 97.5,-221.5 97.5,-221.5 31.5,-221.5"/>
<polygon fill="none" stroke="#666666" points="14,-145 14,-254 97,-254 97,-145 14,-145"/>
</a>
</g>
</g>
<!-- Node2&#45;&gt;Node1 -->
<g id="edge1_Node000001_Node000002" class="edge">
<title>Node2&#45;&gt;Node1</title>
<g id="a_edge1_Node000001_Node000002"><a xlink:title=" ">
<path fill="none" stroke="#63b8ff" d="M55.5,-134.68C55.5,-126.25 55.5,-117.69 55.5,-109.46"/>
<polygon fill="none" stroke="#63b8ff" points="52,-134.85 55.5,-144.85 59,-134.85 52,-134.85"/>
</a>
</g>
</g>
</g>
</svg>
</svg>

<style type='text/css'>
<![CDATA[
[data-mouse-over-selected='false'] { opacity: 0.7; }
[data-mouse-over-selected='true']  { opacity: 1.0; }
]]>
</style>
<script type="application/ecmascript"><![CDATA[
document.addEventListener('DOMContentLoaded', (event) => {
  highlightEdges();
  highlightAdjacentNodes();
});
]]></script>
</svg>
