<?xml version="1.0" encoding="UTF-8" standalone="no"?>
<!DOCTYPE svg PUBLIC "-//W3C//DTD SVG 1.1//EN"
 "http://www.w3.org/Graphics/SVG/1.1/DTD/svg11.dtd">
<!-- Generated by graphviz version 2.43.0 (0)
 -->
<!-- Title: Rivet::NullLiteralAST Pages: 1 -->
<svg width="111pt" height="464pt"
 viewBox="0.00 0.00 111.00 464.00" xmlns="http://www.w3.org/2000/svg" xmlns:xlink="http://www.w3.org/1999/xlink">
<g id="graph0" class="graph" transform="scale(1 1) rotate(0) translate(4 460)">
<title>Rivet::NullLiteralAST</title>
<!-- Node1 -->
<g id="Node000001" class="node">
<title>Node1</title>
<g id="a_Node000001"><a xlink:title="Represents the null keyword — a typed null pointer literal.">
<polygon fill="#999999" stroke="transparent" points="103,-94 0,-94 0,0 103,0 103,-94"/>
<text text-anchor="start" x="5.5" y="-82" font-family="Helvetica,sans-Serif" font-size="10.00">Rivet::NullLiteralAST</text>
<text text-anchor="start" x="50" y="-67" font-family="Helvetica,sans-Serif" font-size="10.00"> </text>
<text text-anchor="start" x="8" y="-52" font-family="Helvetica,sans-Serif" font-size="10.00">+</text>
<text text-anchor="start" x="22.5" y="-52" font-family="Helvetica,sans-Serif" font-size="10.00">codegen()</text>
<text text-anchor="start" x="8" y="-37" font-family="Helvetica,sans-Serif" font-size="10.00">+</text>
<text text-anchor="start" x="22.5" y="-37" font-family="Helvetica,sans-Serif" font-size="10.00">dump()</text>
<text text-anchor="start" x="8" y="-22" font-family="Helvetica,sans-Serif" font-size="10.00">+</text>
<text text-anchor="start" x="22.5" y="-22" font-family="Helvetica,sans-Serif" font-size="10.00">NullLiteralAST()</text>
<text text-anchor="start" x="8" y="-7" font-family="Helvetica,sans-Serif" font-size="10.00">+</text>
<text text-anchor="start" x="22.5" y="-7" font-family="Helvetica,sans-Serif" font-size="10.00">typeCheck()</text>
<polygon fill="#666666" stroke="#666666" points="0.5,-77 0.5,-77 103.5,-77 103.5,-77 0.5,-77"/>
<polygon fill="#666666" stroke="#666666" points="0.5,-62 0.5,-62 103.5,-62 103.5,-62 0.5,-62"/>
<polygon fill="none" stroke="#666666" points="0,0 0,-94 103,-94 103,0 0,0"/>
</a>
</g>
</g>
<!-- Node2 -->
<g id="Node000002" class="node">
<title>Node2</title>
<g id="a_Node000002"><a xlink:href="classRivet_1_1ASTNode.html" target="_top" xlink:title="The pure virtual base class for all Abstract Syntax Tree nodes.">
<polygon fill="white" stroke="transparent" points="93,-240 10,-240 10,-131 93,-131 93,-240"/>
<text text-anchor="start" x="15.5" y="-227.5" font-family="Helvetica,sans-Serif" font-size="10.00">Rivet::ASTNode</text>
<text text-anchor="start" x="50" y="-212.5" font-family="Helvetica,sans-Serif" font-size="10.00"> </text>
<text text-anchor="start" x="16.5" y="-197.5" font-family="Helvetica,sans-Serif" font-size="10.00">+</text>
<text text-anchor="start" x="29.5" y="-197.5" font-family="Helvetica,sans-Serif" font-size="10.00">codegen()</text>
<text text-anchor="start" x="16.5" y="-182.5" font-family="Helvetica,sans-Serif" font-size="10.00">+</text>
<text text-anchor="start" x="29.5" y="-182.5" font-family="Helvetica,sans-Serif" font-size="10.00">dump()</text>
<text text-anchor="start" x="16.5" y="-167.5" font-family="Helvetica,sans-Serif" font-size="10.00">+</text>
<text text-anchor="start" x="29.5" y="-167.5" font-family="Helvetica,sans-Serif" font-size="10.00">typeCheck()</text>
<text text-anchor="start" x="16.5" y="-152.5" font-family="Helvetica,sans-Serif" font-size="10.00">+</text>
<text text-anchor="start" x="29.5" y="-152.5" font-family="Helvetica,sans-Serif" font-size="10.00">~ASTNode()</text>
<text text-anchor="start" x="17" y="-137.5" font-family="Helvetica,sans-Serif" font-size="10.00">#</text>
<text text-anchor="start" x="29.5" y="-137.5" font-family="Helvetica,sans-Serif" font-size="10.00">printIndent()</text>
<polygon fill="#666666" stroke="#666666" points="10.5,-222.5 10.5,-222.5 93.5,-222.5 93.5,-222.5 10.5,-222.5"/>
<polygon fill="#666666" stroke="#666666" points="10.5,-207.5 10.5,-207.5 93.5,-207.5 93.5,-207.5 10.5,-207.5"/>
<polygon fill="none" stroke="#666666" points="10,-131 10,-240 93,-240 93,-131 10,-131"/>
</a>
</g>
</g>
<!-- Node2&#45;&gt;Node1 -->
<g id="edge1_Node000001_Node000002" class="edge">
<title>Node2&#45;&gt;Node1</title>
<g id="a_edge1_Node000001_Node000002"><a xlink:title=" ">
<path fill="none" stroke="#63b8ff" d="M51.5,-120.91C51.5,-111.95 51.5,-102.88 51.5,-94.32"/>
<polygon fill="none" stroke="#63b8ff" points="48,-120.94 51.5,-130.94 55,-120.94 48,-120.94"/>
</a>
</g>
</g>
<!-- Node3 -->
<g id="Node000003" class="node">
<title>Node3</title>
<g id="a_Node000003"><a xlink:href="structRivet_1_1TypeInfo.html" target="_top" xlink:title="Encapsulates a data type, its reference semantics, and array capacity if applicable.">
<polygon fill="white" stroke="transparent" points="92.5,-456 10.5,-456 10.5,-287 92.5,-287 92.5,-456"/>
<text text-anchor="start" x="18" y="-443.5" font-family="Helvetica,sans-Serif" font-size="10.00">Rivet::TypeInfo</text>
<text text-anchor="start" x="14.5" y="-428.5" font-family="Helvetica,sans-Serif" font-size="10.00">+</text>
<text text-anchor="start" x="25.5" y="-428.5" font-family="Helvetica,sans-Serif" font-size="10.00">ArrayCapacity</text>
<text text-anchor="start" x="14.5" y="-413.5" font-family="Helvetica,sans-Serif" font-size="10.00">+</text>
<text text-anchor="start" x="25.5" y="-413.5" font-family="Helvetica,sans-Serif" font-size="10.00">Base</text>
<text text-anchor="start" x="14.5" y="-398.5" font-family="Helvetica,sans-Serif" font-size="10.00">+</text>
<text text-anchor="start" x="25.5" y="-398.5" font-family="Helvetica,sans-Serif" font-size="10.00">IsOptRef</text>
<text text-anchor="start" x="14.5" y="-383.5" font-family="Helvetica,sans-Serif" font-size="10.00">+</text>
<text text-anchor="start" x="25.5" y="-383.5" font-family="Helvetica,sans-Serif" font-size="10.00">IsRef</text>
<text text-anchor="start" x="14.5" y="-368.5" font-family="Helvetica,sans-Serif" font-size="10.00">+</text>
<text text-anchor="start" x="25.5" y="-368.5" font-family="Helvetica,sans-Serif" font-size="10.00">isArray()</text>
<text text-anchor="start" x="14.5" y="-353.5" font-family="Helvetica,sans-Serif" font-size="10.00">+</text>
<text text-anchor="start" x="25.5" y="-353.5" font-family="Helvetica,sans-Serif" font-size="10.00">operator!=()</text>
<text text-anchor="start" x="14.5" y="-338.5" font-family="Helvetica,sans-Serif" font-size="10.00">+</text>
<text text-anchor="start" x="25.5" y="-338.5" font-family="Helvetica,sans-Serif" font-size="10.00">operator==()</text>
<text text-anchor="start" x="14.5" y="-323.5" font-family="Helvetica,sans-Serif" font-size="10.00">+</text>
<text text-anchor="start" x="25.5" y="-323.5" font-family="Helvetica,sans-Serif" font-size="10.00">toString()</text>
<text text-anchor="start" x="14.5" y="-308.5" font-family="Helvetica,sans-Serif" font-size="10.00">+</text>
<text text-anchor="start" x="25.5" y="-308.5" font-family="Helvetica,sans-Serif" font-size="10.00">TypeInfo()</text>
<text text-anchor="start" x="14.5" y="-293.5" font-family="Helvetica,sans-Serif" font-size="10.00">+</text>
<text text-anchor="start" x="25.5" y="-293.5" font-family="Helvetica,sans-Serif" font-size="10.00">TypeInfo()</text>
<polygon fill="#666666" stroke="#666666" points="10.5,-438.5 10.5,-438.5 92.5,-438.5 92.5,-438.5 10.5,-438.5"/>
<polygon fill="#666666" stroke="#666666" points="10.5,-378.5 10.5,-378.5 23.5,-378.5 23.5,-378.5 10.5,-378.5"/>
<polygon fill="#666666" stroke="#666666" points="23.5,-378.5 23.5,-378.5 92.5,-378.5 92.5,-378.5 23.5,-378.5"/>
<polygon fill="none" stroke="#666666" points="10.5,-287 10.5,-456 92.5,-456 92.5,-287 10.5,-287"/>
</a>
</g>
</g>
<!-- Node3&#45;&gt;Node2 -->
<g id="edge2_Node000002_Node000003" class="edge">
<title>Node3&#45;&gt;Node2</title>
<g id="a_edge2_Node000002_Node000003"><a xlink:title=" ">
<path fill="none" stroke="#63b8ff" d="M51.5,-286.85C51.5,-275.33 51.5,-263.63 51.5,-252.49"/>
<polygon fill="none" stroke="#63b8ff" points="51.5,-252.19 47.5,-246.19 51.5,-240.19 55.5,-246.19 51.5,-252.19"/>
</a>
</g>
<text text-anchor="middle" x="77" y="-261" font-family="Helvetica,sans-Serif" font-size="10.00" fill="grey"> +ExprType</text>
</g>
</g>
</svg>
