<?xml version="1.0" encoding="UTF-8" standalone="no"?>
<!DOCTYPE svg PUBLIC "-//W3C//DTD SVG 1.1//EN"
 "http://www.w3.org/Graphics/SVG/1.1/DTD/svg11.dtd">
<!-- Generated by graphviz version 2.43.0 (0)
 -->
<!-- Title: Rivet::TypeInfo::toString Pages: 1 -->
<svg width="313pt" height="131pt"
 viewBox="0.00 0.00 313.00 130.50" xmlns="http://www.w3.org/2000/svg" xmlns:xlink="http://www.w3.org/1999/xlink">

<svg id="main" version="1.1" xmlns="http://www.w3.org/2000/svg" xmlns:xlink="http://www.w3.org/1999/xlink" xml:space="preserve" onload="init(evt)">
<style type="text/css"><![CDATA[
.node, .edge {opacity: 0.7;}
.node.selected, .edge.selected {opacity: 1;}
.edge:hover path { stroke: red; }
.edge:hover polygon { stroke: red; fill: red; }
]]></style>
<script type="application/ecmascript" xlink:href="svg.min.js"/>
<svg id="graph" class="graph">
<g id="graph0" class="graph" transform="scale(1 1) rotate(0) translate(4 126.5)">
<title>Rivet::TypeInfo::toString</title>
<!-- Node1 -->
<g id="Node000001" class="node">
<title>Node1</title>
<g id="a_Node000001"><a xlink:title="Converts the embedded semantic instructions into a readable debug string format.">
<polygon fill="#999999" stroke="#666666" points="305,-56 182,-56 182,-37 305,-37 305,-56"/>
<text text-anchor="middle" x="243.5" y="-44" font-family="Helvetica,sans-Serif" font-size="10.00">Rivet::TypeInfo::toString</text>
</a>
</g>
</g>
<!-- Node2 -->
<g id="Node000002" class="node">
<title>Node2</title>
<g id="a_Node000002"><a xlink:href="classRivet_1_1VariableDeclAST.html#a460732a4f926f201708d5379ac11c673" target="_top" xlink:title="Analyzes AST structure semantics like variable lifetimes, references, bounds, and typing.">
<polygon fill="white" stroke="#666666" points="133,-122.5 13,-122.5 13,-92.5 133,-92.5 133,-122.5"/>
<text text-anchor="start" x="21" y="-110.5" font-family="Helvetica,sans-Serif" font-size="10.00">Rivet::VariableDeclAST</text>
<text text-anchor="middle" x="73" y="-99.5" font-family="Helvetica,sans-Serif" font-size="10.00">::typeCheck</text>
</a>
</g>
</g>
<!-- Node1&#45;&gt;Node2 -->
<g id="edge1_Node000001_Node000002" class="edge">
<title>Node1&#45;&gt;Node2</title>
<g id="a_edge1_Node000001_Node000002"><a xlink:title=" ">
<path fill="none" stroke="#63b8ff" d="M208.97,-59.78C190.47,-67 167.05,-75.96 146,-83.5 137.69,-86.48 128.8,-89.54 120.2,-92.44"/>
<polygon fill="#63b8ff" stroke="#63b8ff" points="210.38,-62.98 218.42,-56.07 207.83,-56.46 210.38,-62.98"/>
</a>
</g>
</g>
<!-- Node3 -->
<g id="Node000003" class="node">
<title>Node3</title>
<g id="a_Node000003"><a xlink:href="classRivet_1_1CallAST.html#ade436fa8295c42f55149e259ba416cc6" target="_top" xlink:title="Analyzes AST structure semantics like variable lifetimes, references, bounds, and typing.">
<polygon fill="white" stroke="#666666" points="140,-56 6,-56 6,-37 140,-37 140,-56"/>
<text text-anchor="middle" x="73" y="-44" font-family="Helvetica,sans-Serif" font-size="10.00">Rivet::CallAST::typeCheck</text>
</a>
</g>
</g>
<!-- Node1&#45;&gt;Node3 -->
<g id="edge2_Node000001_Node000003" class="edge">
<title>Node1&#45;&gt;Node3</title>
<g id="a_edge2_Node000001_Node000003"><a xlink:title=" ">
<path fill="none" stroke="#63b8ff" d="M171.42,-46.5C161.05,-46.5 150.42,-46.5 140.16,-46.5"/>
<polygon fill="#63b8ff" stroke="#63b8ff" points="171.67,-50 181.67,-46.5 171.67,-43 171.67,-50"/>
</a>
</g>
</g>
<!-- Node4 -->
<g id="Node000004" class="node">
<title>Node4</title>
<g id="a_Node000004"><a xlink:href="classRivet_1_1ReturnAST.html#a7220f9dc94b6168d65e09899e76b5207" target="_top" xlink:title="Analyzes AST structure semantics like variable lifetimes, references, bounds, and typing.">
<polygon fill="white" stroke="#666666" points="146,-19 0,-19 0,0 146,0 146,-19"/>
<text text-anchor="middle" x="73" y="-7" font-family="Helvetica,sans-Serif" font-size="10.00">Rivet::ReturnAST::typeCheck</text>
</a>
</g>
</g>
<!-- Node1&#45;&gt;Node4 -->
<g id="edge4_Node000001_Node000004" class="edge">
<title>Node1&#45;&gt;Node4</title>
<g id="a_edge4_Node000001_Node000004"><a xlink:title=" ">
<path fill="none" stroke="#63b8ff" d="M189.13,-34.78C166.05,-29.71 139.39,-23.86 117.54,-19.06"/>
<polygon fill="#63b8ff" stroke="#63b8ff" points="188.59,-38.25 199.11,-36.97 190.09,-31.41 188.59,-38.25"/>
</a>
</g>
</g>
<!-- Node3&#45;&gt;Node3 -->
<g id="edge3_Node000003_Node000003" class="edge">
<title>Node3&#45;&gt;Node3</title>
<g id="a_edge3_Node000003_Node000003"><a xlink:title=" ">
<path fill="none" stroke="#63b8ff" d="M104.81,-64.45C103.9,-69.82 93.3,-74 73,-74 42.79,-74 34.05,-64.73 46.8,-56.08"/>
<polygon fill="#63b8ff" stroke="#63b8ff" points="107.68,-62.44 99.2,-56.08 101.86,-66.34 107.68,-62.44"/>
</a>
</g>
</g>
</g>
</svg>
</svg>

<style type='text/css'>
<![CDATA[
[data-mouse-over-selected='false'] { opacity: 0.7; }
[data-mouse-over-selected='true']  { opacity: 1.0; }
]]>
</style>
<script type="application/ecmascript"><![CDATA[
document.addEventListener('DOMContentLoaded', (event) => {
  highlightEdges();
  highlightAdjacentNodes();
});
]]></script>
</svg>
