<?xml version="1.0" encoding="UTF-8" standalone="no"?>
<!DOCTYPE svg PUBLIC "-//W3C//DTD SVG 1.1//EN"
 "http://www.w3.org/Graphics/SVG/1.1/DTD/svg11.dtd">
<!-- Generated by graphviz version 2.43.0 (0)
 -->
<!-- Title: Rivet::Symbol Pages: 1 -->
<svg width="90pt" height="273pt"
 viewBox="0.00 0.00 90.00 273.00" xmlns="http://www.w3.org/2000/svg" xmlns:xlink="http://www.w3.org/1999/xlink">
<g id="graph0" class="graph" transform="scale(1 1) rotate(0) translate(4 269)">
<title>Rivet::Symbol</title>
<!-- Node1 -->
<g id="Node000001" class="node">
<title>Node1</title>
<g id="a_Node000001"><a xlink:title=" ">
<polygon fill="#999999" stroke="transparent" points="77.5,-64 4.5,-64 4.5,0 77.5,0 77.5,-64"/>
<text text-anchor="start" x="10" y="-52" font-family="Helvetica,sans-Serif" font-size="10.00">Rivet::Symbol</text>
<text text-anchor="start" x="10" y="-37" font-family="Helvetica,sans-Serif" font-size="10.00">+</text>
<text text-anchor="start" x="22" y="-37" font-family="Helvetica,sans-Serif" font-size="10.00">IsInitialized</text>
<text text-anchor="start" x="10" y="-22" font-family="Helvetica,sans-Serif" font-size="10.00">+</text>
<text text-anchor="start" x="22" y="-22" font-family="Helvetica,sans-Serif" font-size="10.00">Name</text>
<text text-anchor="start" x="39.5" y="-7" font-family="Helvetica,sans-Serif" font-size="10.00"> </text>
<polygon fill="#666666" stroke="#666666" points="5,-47 5,-47 78,-47 78,-47 5,-47"/>
<polygon fill="#666666" stroke="#666666" points="5,-17 5,-17 20,-17 20,-17 5,-17"/>
<polygon fill="#666666" stroke="#666666" points="20,-17 20,-17 78,-17 78,-17 20,-17"/>
<polygon fill="none" stroke="#666666" points="4.5,0 4.5,-64 77.5,-64 77.5,0 4.5,0"/>
</a>
</g>
</g>
<!-- Node2 -->
<g id="Node000002" class="node">
<title>Node2</title>
<g id="a_Node000002"><a xlink:href="structRivet_1_1TypeInfo.html" target="_top" xlink:title=" ">
<polygon fill="white" stroke="transparent" points="82,-265 0,-265 0,-111 82,-111 82,-265"/>
<text text-anchor="start" x="7.5" y="-253" font-family="Helvetica,sans-Serif" font-size="10.00">Rivet::TypeInfo</text>
<text text-anchor="start" x="4" y="-238" font-family="Helvetica,sans-Serif" font-size="10.00">+</text>
<text text-anchor="start" x="15" y="-238" font-family="Helvetica,sans-Serif" font-size="10.00">ArrayCapacity</text>
<text text-anchor="start" x="4" y="-223" font-family="Helvetica,sans-Serif" font-size="10.00">+</text>
<text text-anchor="start" x="15" y="-223" font-family="Helvetica,sans-Serif" font-size="10.00">Base</text>
<text text-anchor="start" x="4" y="-208" font-family="Helvetica,sans-Serif" font-size="10.00">+</text>
<text text-anchor="start" x="15" y="-208" font-family="Helvetica,sans-Serif" font-size="10.00">IsRef</text>
<text text-anchor="start" x="4" y="-193" font-family="Helvetica,sans-Serif" font-size="10.00">+</text>
<text text-anchor="start" x="15" y="-193" font-family="Helvetica,sans-Serif" font-size="10.00">isArray()</text>
<text text-anchor="start" x="4" y="-178" font-family="Helvetica,sans-Serif" font-size="10.00">+</text>
<text text-anchor="start" x="15" y="-178" font-family="Helvetica,sans-Serif" font-size="10.00">operator!=()</text>
<text text-anchor="start" x="4" y="-163" font-family="Helvetica,sans-Serif" font-size="10.00">+</text>
<text text-anchor="start" x="15" y="-163" font-family="Helvetica,sans-Serif" font-size="10.00">operator==()</text>
<text text-anchor="start" x="4" y="-148" font-family="Helvetica,sans-Serif" font-size="10.00">+</text>
<text text-anchor="start" x="15" y="-148" font-family="Helvetica,sans-Serif" font-size="10.00">toString()</text>
<text text-anchor="start" x="4" y="-133" font-family="Helvetica,sans-Serif" font-size="10.00">+</text>
<text text-anchor="start" x="15" y="-133" font-family="Helvetica,sans-Serif" font-size="10.00">TypeInfo()</text>
<text text-anchor="start" x="4" y="-118" font-family="Helvetica,sans-Serif" font-size="10.00">+</text>
<text text-anchor="start" x="15" y="-118" font-family="Helvetica,sans-Serif" font-size="10.00">TypeInfo()</text>
<polygon fill="#666666" stroke="#666666" points="0,-248 0,-248 82,-248 82,-248 0,-248"/>
<polygon fill="#666666" stroke="#666666" points="0,-203 0,-203 13,-203 13,-203 0,-203"/>
<polygon fill="#666666" stroke="#666666" points="13,-203 13,-203 82,-203 82,-203 13,-203"/>
<polygon fill="none" stroke="#666666" points="0,-111 0,-265 82,-265 82,-111 0,-111"/>
</a>
</g>
</g>
<!-- Node2&#45;&gt;Node1 -->
<g id="edge1_Node000001_Node000002" class="edge">
<title>Node2&#45;&gt;Node1</title>
<g id="a_edge1_Node000001_Node000002"><a xlink:title=" ">
<path fill="none" stroke="#63b8ff" d="M41,-110.9C41,-99.03 41,-87.13 41,-76.33"/>
<polygon fill="none" stroke="#63b8ff" points="41,-76.22 37,-70.22 41,-64.22 45,-70.22 41,-76.22"/>
</a>
</g>
<text text-anchor="middle" x="56.5" y="-85" font-family="Helvetica,sans-Serif" font-size="10.00" fill="grey"> +Type</text>
</g>
</g>
</svg>
