<?xml version="1.0" encoding="UTF-8" standalone="no"?>
<!DOCTYPE svg PUBLIC "-//W3C//DTD SVG 1.1//EN"
 "http://www.w3.org/Graphics/SVG/1.1/DTD/svg11.dtd">
<!-- Generated by graphviz version 2.43.0 (0)
 -->
<!-- Title: SymbolTable.h Pages: 1 -->
<svg width="256pt" height="137pt"
 viewBox="0.00 0.00 256.00 137.00" xmlns="http://www.w3.org/2000/svg" xmlns:xlink="http://www.w3.org/1999/xlink">
<g id="graph0" class="graph" transform="scale(1 1) rotate(0) translate(4 133)">
<title>SymbolTable.h</title>
<!-- Node1 -->
<g id="Node000001" class="node">
<title>Node1</title>
<g id="a_Node000001"><a xlink:title="Defines the scoped symbol table for semantic analysis.">
<polygon fill="#999999" stroke="#666666" points="149.5,-129 68.5,-129 68.5,-110 149.5,-110 149.5,-129"/>
<text text-anchor="middle" x="109" y="-117" font-family="Helvetica,sans-Serif" font-size="10.00">SymbolTable.h</text>
</a>
</g>
</g>
<!-- Node2 -->
<g id="Node000002" class="node">
<title>Node2</title>
<g id="a_Node000002"><a xlink:href="Type_8h.html" target="_top" xlink:title="Defines the basic types supported by the Rivet type system.">
<polygon fill="white" stroke="#666666" points="46,-74 0,-74 0,-55 46,-55 46,-74"/>
<text text-anchor="middle" x="23" y="-62" font-family="Helvetica,sans-Serif" font-size="10.00">Type.h</text>
</a>
</g>
</g>
<!-- Node1&#45;&gt;Node2 -->
<g id="edge1_Node000001_Node000002" class="edge">
<title>Node1&#45;&gt;Node2</title>
<g id="a_edge1_Node000001_Node000002"><a xlink:title=" ">
<path fill="none" stroke="#63b8ff" d="M95.18,-109.98C81.85,-101.77 61.42,-89.18 45.69,-79.49"/>
<polygon fill="#63b8ff" stroke="#63b8ff" points="47.42,-76.44 37.07,-74.17 43.75,-82.4 47.42,-76.44"/>
</a>
</g>
</g>
<!-- Node3 -->
<g id="Node000003" class="node">
<title>Node3</title>
<g id="a_Node000003"><a xlink:title=" ">
<polygon fill="#e0e0e0" stroke="#999999" points="68.5,-19 27.5,-19 27.5,0 68.5,0 68.5,-19"/>
<text text-anchor="middle" x="48" y="-7" font-family="Helvetica,sans-Serif" font-size="10.00">string</text>
</a>
</g>
</g>
<!-- Node1&#45;&gt;Node3 -->
<g id="edge3_Node000001_Node000003" class="edge">
<title>Node1&#45;&gt;Node3</title>
<g id="a_edge3_Node000001_Node000003"><a xlink:title=" ">
<path fill="none" stroke="#63b8ff" d="M104.01,-109.66C93.95,-91.85 71.08,-51.37 57.89,-28.01"/>
<polygon fill="#63b8ff" stroke="#63b8ff" points="60.86,-26.14 52.89,-19.16 54.76,-29.59 60.86,-26.14"/>
</a>
</g>
</g>
<!-- Node4 -->
<g id="Node000004" class="node">
<title>Node4</title>
<g id="a_Node000004"><a xlink:title=" ">
<polygon fill="#e0e0e0" stroke="#999999" points="185.5,-74 102.5,-74 102.5,-55 185.5,-55 185.5,-74"/>
<text text-anchor="middle" x="144" y="-62" font-family="Helvetica,sans-Serif" font-size="10.00">unordered_map</text>
</a>
</g>
</g>
<!-- Node1&#45;&gt;Node4 -->
<g id="edge4_Node000001_Node000004" class="edge">
<title>Node1&#45;&gt;Node4</title>
<g id="a_edge4_Node000001_Node000004"><a xlink:title=" ">
<path fill="none" stroke="#63b8ff" d="M114.78,-109.75C119.62,-102.42 126.68,-91.73 132.64,-82.7"/>
<polygon fill="#63b8ff" stroke="#63b8ff" points="135.74,-84.36 138.33,-74.09 129.9,-80.5 135.74,-84.36"/>
</a>
</g>
</g>
<!-- Node5 -->
<g id="Node000005" class="node">
<title>Node5</title>
<g id="a_Node000005"><a xlink:title=" ">
<polygon fill="#e0e0e0" stroke="#999999" points="248,-74 204,-74 204,-55 248,-55 248,-74"/>
<text text-anchor="middle" x="226" y="-62" font-family="Helvetica,sans-Serif" font-size="10.00">vector</text>
</a>
</g>
</g>
<!-- Node1&#45;&gt;Node5 -->
<g id="edge5_Node000001_Node000005" class="edge">
<title>Node1&#45;&gt;Node5</title>
<g id="a_edge5_Node000001_Node000005"><a xlink:title=" ">
<path fill="none" stroke="#63b8ff" d="M127.8,-109.98C146.62,-101.46 175.82,-88.23 197.5,-78.41"/>
<polygon fill="#63b8ff" stroke="#63b8ff" points="199.2,-81.48 206.86,-74.17 196.31,-75.11 199.2,-81.48"/>
</a>
</g>
</g>
<!-- Node2&#45;&gt;Node3 -->
<g id="edge2_Node000002_Node000003" class="edge">
<title>Node2&#45;&gt;Node3</title>
<g id="a_edge2_Node000002_Node000003"><a xlink:title=" ">
<path fill="none" stroke="#63b8ff" d="M27.13,-54.75C30.51,-47.57 35.42,-37.18 39.62,-28.27"/>
<polygon fill="#63b8ff" stroke="#63b8ff" points="42.85,-29.63 43.95,-19.09 36.52,-26.64 42.85,-29.63"/>
</a>
</g>
</g>
</g>
</svg>
